<svg version="1.1" xmlns="http://www.w3.org/2000/svg" viewBox="0 0 4957.44369167629 2680.1544317134426" width="9914.88738335258" height="5360.308863426885" filter="invert(93%) hue-rotate(180deg)">
  <!-- svg-source:excalidraw -->
  
  <defs>
    <style class="style-fonts">
      @font-face {
        font-family: "Virgil";
        src: url("https://excalidraw.com/Virgil.woff2");
      }
      @font-face {
        font-family: "Cascadia";
        src: url("https://excalidraw.com/Cascadia.woff2");
      }
    </style>
  </defs>
  <rect x="0" y="0" width="4957.44369167629" height="2680.1544317134426" fill="#ffffff"></rect><g transform="translate(2588.0388540789268 251.61270518107187) rotate(0 245.5 23)"><text x="0" y="32" font-family="Virgil, Segoe UI Emoji" font-size="36px" fill="#000000" text-anchor="start" style="white-space: pre;" direction="ltr">Assembly line CI/CD system</text></g><g stroke-linecap="round" transform="translate(2488.005519086462 936.1776794752992) rotate(0 591.8376350191979 856.0566615565009)"><path d="M32 0 M32 0 C399.92 3.87, 767.64 4.87, 1151.68 0 M32 0 C326.08 3.11, 619.52 3.23, 1151.68 0 M1151.68 0 C1173.45 -1.74, 1182.39 8.79, 1183.68 32 M1151.68 0 C1174.35 0.25, 1183.17 9.65, 1183.68 32 M1183.68 32 C1183.93 543.39, 1182.98 1055.71, 1183.68 1680.11 M1183.68 32 C1187.94 545.33, 1187.7 1058.06, 1183.68 1680.11 M1183.68 1680.11 C1181.92 1702.83, 1173.95 1711.53, 1151.68 1712.11 M1183.68 1680.11 C1182.66 1699.8, 1171.34 1713.38, 1151.68 1712.11 M1151.68 1712.11 C861.52 1707.63, 570.52 1707.88, 32 1712.11 M1151.68 1712.11 C867.66 1714.66, 584.03 1714.37, 32 1712.11 M32 1712.11 C9.26 1713.86, -1.18 1701.26, 0 1680.11 M32 1712.11 C9.91 1713.22, -0.21 1702.87, 0 1680.11 M0 1680.11 C-0.31 1045.67, 0.62 410.47, 0 32 M0 1680.11 C-0.19 1282.36, 0.44 883.55, 0 32 M0 32 C-0.14 9.4, 11.08 1.22, 32 0 M0 32 C-2.07 9.72, 9.09 0.65, 32 0" stroke="#000000" stroke-width="1" fill="none"></path></g><g transform="translate(2568.5567219765044 987.5148945117663) rotate(0 553 758.9999999999999)"><text x="0" y="32" font-family="Virgil, Segoe UI Emoji" font-size="36px" fill="#000000" text-anchor="start" style="white-space: pre;" direction="ltr">Client:</text><text x="0" y="78" font-family="Virgil, Segoe UI Emoji" font-size="36px" fill="#000000" text-anchor="start" style="white-space: pre;" direction="ltr"> - Each step is a container</text><text x="0" y="124" font-family="Virgil, Segoe UI Emoji" font-size="36px" fill="#000000" text-anchor="start" style="white-space: pre;" direction="ltr"> - Branching logic</text><text x="0" y="170" font-family="Virgil, Segoe UI Emoji" font-size="36px" fill="#000000" text-anchor="start" style="white-space: pre;" direction="ltr"> - Agents can have different capabilities</text><text x="0" y="216" font-family="Virgil, Segoe UI Emoji" font-size="36px" fill="#000000" text-anchor="start" style="white-space: pre;" direction="ltr">    for example:</text><text x="0" y="262" font-family="Virgil, Segoe UI Emoji" font-size="36px" fill="#000000" text-anchor="start" style="white-space: pre;" direction="ltr">     * can use gpu</text><text x="0" y="308" font-family="Virgil, Segoe UI Emoji" font-size="36px" fill="#000000" text-anchor="start" style="white-space: pre;" direction="ltr">     * is a mac</text><text x="0" y="354" font-family="Virgil, Segoe UI Emoji" font-size="36px" fill="#000000" text-anchor="start" style="white-space: pre;" direction="ltr">     * is kubernetes aware</text><text x="0" y="400" font-family="Virgil, Segoe UI Emoji" font-size="36px" fill="#000000" text-anchor="start" style="white-space: pre;" direction="ltr"> - Agent is a cli that can ether run as a daemon or as a cli</text><text x="0" y="446" font-family="Virgil, Segoe UI Emoji" font-size="36px" fill="#000000" text-anchor="start" style="white-space: pre;" direction="ltr">    * al agent</text><text x="0" y="492" font-family="Virgil, Segoe UI Emoji" font-size="36px" fill="#000000" text-anchor="start" style="white-space: pre;" direction="ltr">    * al run my-pipeline</text><text x="0" y="538" font-family="Virgil, Segoe UI Emoji" font-size="36px" fill="#000000" text-anchor="start" style="white-space: pre;" direction="ltr"> - Agent can run with all local files</text><text x="0" y="584" font-family="Virgil, Segoe UI Emoji" font-size="36px" fill="#000000" text-anchor="start" style="white-space: pre;" direction="ltr"> - Agent is useful without a server?</text><text x="0" y="630" font-family="Virgil, Segoe UI Emoji" font-size="36px" fill="#000000" text-anchor="start" style="white-space: pre;" direction="ltr"> - What i'm capable of running.</text><text x="0" y="676" font-family="Virgil, Segoe UI Emoji" font-size="36px" fill="#000000" text-anchor="start" style="white-space: pre;" direction="ltr"></text><text x="0" y="722" font-family="Virgil, Segoe UI Emoji" font-size="36px" fill="#000000" text-anchor="start" style="white-space: pre;" direction="ltr"></text><text x="0" y="768" font-family="Virgil, Segoe UI Emoji" font-size="36px" fill="#000000" text-anchor="start" style="white-space: pre;" direction="ltr">Server:</text><text x="0" y="814" font-family="Virgil, Segoe UI Emoji" font-size="36px" fill="#000000" text-anchor="start" style="white-space: pre;" direction="ltr"> - Configuration Language? Yaml? Lua? WASM???</text><text x="0" y="860" font-family="Virgil, Segoe UI Emoji" font-size="36px" fill="#000000" text-anchor="start" style="white-space: pre;" direction="ltr">    * Open topic</text><text x="0" y="906" font-family="Virgil, Segoe UI Emoji" font-size="36px" fill="#000000" text-anchor="start" style="white-space: pre;" direction="ltr"> - configuration sits with the code.</text><text x="0" y="952" font-family="Virgil, Segoe UI Emoji" font-size="36px" fill="#000000" text-anchor="start" style="white-space: pre;" direction="ltr"> - long polling?</text><text x="0" y="998" font-family="Virgil, Segoe UI Emoji" font-size="36px" fill="#000000" text-anchor="start" style="white-space: pre;" direction="ltr"> - Does not require k8s to run</text><text x="0" y="1044" font-family="Virgil, Segoe UI Emoji" font-size="36px" fill="#000000" text-anchor="start" style="white-space: pre;" direction="ltr">    * Can leverage k8s via k8s agent</text><text x="0" y="1090" font-family="Virgil, Segoe UI Emoji" font-size="36px" fill="#000000" text-anchor="start" style="white-space: pre;" direction="ltr"> - Can Watch/Listen to events</text><text x="0" y="1136" font-family="Virgil, Segoe UI Emoji" font-size="36px" fill="#000000" text-anchor="start" style="white-space: pre;" direction="ltr"> - Stores all git repos it should watch</text><text x="0" y="1182" font-family="Virgil, Segoe UI Emoji" font-size="36px" fill="#000000" text-anchor="start" style="white-space: pre;" direction="ltr">    * git ops</text><text x="0" y="1228" font-family="Virgil, Segoe UI Emoji" font-size="36px" fill="#000000" text-anchor="start" style="white-space: pre;" direction="ltr">    * gitlab, github, git.</text><text x="0" y="1274" font-family="Virgil, Segoe UI Emoji" font-size="36px" fill="#000000" text-anchor="start" style="white-space: pre;" direction="ltr"> - Provides UI that is central source of truth for all</text><text x="0" y="1320" font-family="Virgil, Segoe UI Emoji" font-size="36px" fill="#000000" text-anchor="start" style="white-space: pre;" direction="ltr">       agents in a cluster</text><text x="0" y="1366" font-family="Virgil, Segoe UI Emoji" font-size="36px" fill="#000000" text-anchor="start" style="white-space: pre;" direction="ltr"> - Env vars, secrets management (vault, aws secrets ect)</text><text x="0" y="1412" font-family="Virgil, Segoe UI Emoji" font-size="36px" fill="#000000" text-anchor="start" style="white-space: pre;" direction="ltr"> - user management</text><text x="0" y="1458" font-family="Virgil, Segoe UI Emoji" font-size="36px" fill="#000000" text-anchor="start" style="white-space: pre;" direction="ltr"> - rbac</text><text x="0" y="1504" font-family="Virgil, Segoe UI Emoji" font-size="36px" fill="#000000" text-anchor="start" style="white-space: pre;" direction="ltr"> - Custom trust rules?</text></g><g stroke-linecap="round" transform="translate(1407.8509813595829 1528.3481630800343) rotate(0 113.23955986274598 160.94473614534957)"><path d="M32 0 M32 0 C66.75 0.46, 101.46 1.07, 194.48 0 M32 0 C93.3 0.14, 155.79 -0.13, 194.48 0 M194.48 0 C216.49 1.31, 226.11 11.38, 226.48 32 M194.48 0 C216.47 -1.94, 226.09 10, 226.48 32 M226.48 32 C225.33 99.78, 227.66 170.11, 226.48 289.89 M226.48 32 C227.37 109.58, 227.63 185.77, 226.48 289.89 M226.48 289.89 C224.94 311.45, 217.43 323.34, 194.48 321.89 M226.48 289.89 C227.09 310.84, 214.21 320.31, 194.48 321.89 M194.48 321.89 C134.72 320.5, 79.12 318.76, 32 321.89 M194.48 321.89 C157.23 321.18, 119.34 320.85, 32 321.89 M32 321.89 C12.66 323.38, -1.71 311.92, 0 289.89 M32 321.89 C9.93 323.06, -0.28 309.77, 0 289.89 M0 289.89 C-1.49 217.07, -2.63 146.13, 0 32 M0 289.89 C-2.05 231.41, -1.1 171.61, 0 32 M0 32 C-0.06 12.24, 9.9 -1.8, 32 0 M0 32 C-2.08 11.52, 8.82 0.19, 32 0" stroke="#000000" stroke-width="1" fill="none"></path></g><g stroke-linecap="round" transform="translate(1707.7424016158616 1524.4931993400264) rotate(0 113.23955986274598 160.94473614534957)"><path d="M32 0 M32 0 C86.99 0.87, 138.86 -0.04, 194.48 0 M32 0 C75.61 -0.89, 119.47 0.56, 194.48 0 M194.48 0 C216.7 -0.01, 228.1 11.56, 226.48 32 M194.48 0 C213.56 1, 224.96 8.72, 226.48 32 M226.48 32 C227.88 89.95, 226.45 145.94, 226.48 289.89 M226.48 32 C227.05 91.08, 227.68 151.84, 226.48 289.89 M226.48 289.89 C224.67 309.8, 214.67 320.9, 194.48 321.89 M226.48 289.89 C226.4 311.44, 214.18 321.35, 194.48 321.89 M194.48 321.89 C130.2 319.87, 65.55 320.26, 32 321.89 M194.48 321.89 C155.61 323.43, 116.81 322.72, 32 321.89 M32 321.89 C10.44 320.46, 1.46 311.71, 0 289.89 M32 321.89 C9.12 323.03, 1.19 309.71, 0 289.89 M0 289.89 C-3.08 211.86, -1.04 135.45, 0 32 M0 289.89 C2.08 209.65, 1.79 131.15, 0 32 M0 32 C-0.17 8.84, 9.59 -1.57, 32 0 M0 32 C1.87 9.14, 8.37 0.93, 32 0" stroke="#000000" stroke-width="1" fill="none"></path></g><g stroke-linecap="round" transform="translate(2052.5069861561674 1530.9217899177847) rotate(0 113.23955986274598 160.94473614534957)"><path d="M32 0 M32 0 C92 -2.27, 150.51 -1.16, 194.48 0 M32 0 C74.49 0.09, 119.22 1.11, 194.48 0 M194.48 0 C215.8 1.62, 227.37 8.71, 226.48 32 M194.48 0 C216.82 -1.52, 224.54 8.9, 226.48 32 M226.48 32 C228.58 112.08, 227.04 191.6, 226.48 289.89 M226.48 32 C225.11 124.61, 226.21 216.54, 226.48 289.89 M226.48 289.89 C225.06 310.08, 214.83 321.82, 194.48 321.89 M226.48 289.89 C226.69 309.59, 215.27 324.19, 194.48 321.89 M194.48 321.89 C132.95 323.47, 72.45 321.19, 32 321.89 M194.48 321.89 C149.41 320.67, 103.47 321.2, 32 321.89 M32 321.89 C9.23 323.35, 0.48 309.88, 0 289.89 M32 321.89 C11.8 323.08, -1.51 311.15, 0 289.89 M0 289.89 C-0.65 192.81, -0.5 94.67, 0 32 M0 289.89 C-2.13 231.49, -1.12 172.44, 0 32 M0 32 C-1.83 9.59, 9.09 1.62, 32 0 M0 32 C-1.53 8.37, 11.6 -0.68, 32 0" stroke="#000000" stroke-width="1" fill="none"></path></g><g stroke-linecap="round" transform="translate(1437.614205734974 938.9964539607485) rotate(0 391.76069007835105 212.50487616796158)"><path d="M32 0 M32 0 C259.63 1, 488.03 1.77, 751.52 0 M32 0 C199.24 -1.5, 367.31 -1.65, 751.52 0 M751.52 0 C771.05 -1.81, 784.26 9.06, 783.52 32 M751.52 0 C773.05 -1.67, 785.06 12.31, 783.52 32 M783.52 32 C784.22 105.83, 783.65 180.98, 783.52 393.01 M783.52 32 C782.26 169.41, 781.54 307.61, 783.52 393.01 M783.52 393.01 C783.93 412.7, 773.92 423.9, 751.52 425.01 M783.52 393.01 C783.83 414.55, 770.61 424.02, 751.52 425.01 M751.52 425.01 C469.26 427.85, 185.35 427.63, 32 425.01 M751.52 425.01 C586.2 425.88, 421.03 425.66, 32 425.01 M32 425.01 C11.54 424.04, 0.43 414.69, 0 393.01 M32 425.01 C12.68 422.83, -2.1 413.43, 0 393.01 M0 393.01 C-0.34 270.57, 0.03 148.01, 0 32 M0 393.01 C-1.78 297.77, -0.9 201.31, 0 32 M0 32 C0.59 9.53, 12.53 -1.79, 32 0 M0 32 C1.2 9.72, 9.4 -1.65, 32 0" stroke="#000000" stroke-width="1" fill="none"></path></g><g transform="translate(1857.3564689009518 979.178957239421) rotate(0 56.5 23)"><text x="0" y="32" font-family="Virgil, Segoe UI Emoji" font-size="36px" fill="#000000" text-anchor="start" style="white-space: pre;" direction="ltr">Server</text></g><g transform="translate(1457.965509979692 1693.5314588604278) rotate(0 29 23)"><text x="0" y="32" font-family="Virgil, Segoe UI Emoji" font-size="36px" fill="#000000" text-anchor="start" style="white-space: pre;" direction="ltr">gpu</text></g><g transform="translate(1786.6011688154058 1697.3864226004362) rotate(0 29 23)"><text x="0" y="32" font-family="Virgil, Segoe UI Emoji" font-size="36px" fill="#000000" text-anchor="start" style="white-space: pre;" direction="ltr">cpu</text></g><g transform="translate(2131.1982780284297 1755.4648056996398) rotate(0 29 23)"><text x="0" y="32" font-family="Virgil, Segoe UI Emoji" font-size="36px" fill="#000000" text-anchor="start" style="white-space: pre;" direction="ltr">cpu</text></g><g stroke-linecap="round"><g transform="translate(1527.3842492456374 1522.5657174700218) rotate(0 34.62340989807666 -73.53717515344715)"><path d="M-0.47 0.49 C11.34 -23.66, 58.02 -121.48, 69.72 -145.98 M1.48 -0.3 C13.27 -24.67, 57.71 -122.86, 69.01 -147.56" stroke="#000000" stroke-width="1" fill="none"></path></g><g transform="translate(1527.3842492456374 1522.5657174700218) rotate(0 34.62340989807666 -73.53717515344715)"><path d="M67.48 -116.92 C69.12 -122.99, 68.78 -128.53, 70.56 -148.26 M67.44 -116.91 C66.99 -128.12, 67.63 -138.25, 68.11 -147.04" stroke="#000000" stroke-width="1" fill="none"></path></g><g transform="translate(1527.3842492456374 1522.5657174700218) rotate(0 34.62340989807666 -73.53717515344715)"><path d="M48.8 -125.42 C54.19 -129.67, 57.68 -133.47, 70.56 -148.26 M48.76 -125.41 C55.08 -133.43, 62.45 -140.51, 68.11 -147.04" stroke="#000000" stroke-width="1" fill="none"></path></g></g><mask></mask><g stroke-linecap="round"><g transform="translate(1816.1238895010515 1509.0733443799922) rotate(0 -1.4927868843525403 -67.20955726876991)"><path d="M-0.04 0.29 C-0.43 -21.95, -1.78 -110.66, -1.99 -132.9 M-1.52 -0.61 C-2.1 -23.24, -2.91 -112.26, -2.95 -134.71" stroke="#000000" stroke-width="1" fill="none"></path></g><g transform="translate(1816.1238895010515 1509.0733443799922) rotate(0 -1.4927868843525403 -67.20955726876991)"><path d="M7.97 -106.6 C4.93 -114.75, 1.1 -124.21, -2.87 -133.31 M8.26 -107.52 C3.09 -118.01, -0.35 -128.3, -2.86 -135.14" stroke="#000000" stroke-width="1" fill="none"></path></g><g transform="translate(1816.1238895010515 1509.0733443799922) rotate(0 -1.4927868843525403 -67.20955726876991)"><path d="M-12.55 -106.47 C-8.84 -114.66, -5.92 -124.16, -2.87 -133.31 M-12.26 -107.4 C-9.45 -117.97, -4.91 -128.32, -2.86 -135.14" stroke="#000000" stroke-width="1" fill="none"></path></g></g><mask></mask><g stroke-linecap="round" transform="translate(1778.957535168533 1264.427008994583) rotate(0 34.21280319257431 32.2853213225701)"><path d="M43.75 8.25 M43.75 8.25 C50.06 11.12, 52.22 18.53, 59.68 24.75 M43.75 8.25 C48.14 12.21, 51.94 16.17, 59.68 24.75 M59.68 24.75 C69.9 32.58, 68.77 32.45, 59.68 41.25 M59.68 24.75 C67.97 30.79, 68.25 34.83, 59.68 41.25 M59.68 41.25 C55 45.48, 48.22 52.23, 43.75 56.32 M59.68 41.25 C53.81 47.18, 48.55 51.21, 43.75 56.32 M43.75 56.32 C34.75 63.98, 36.56 64.25, 26.25 56.32 M43.75 56.32 C36.16 64.32, 33.22 64.3, 26.25 56.32 M26.25 56.32 C20.45 49.49, 13.68 44.18, 8.75 41.25 M26.25 56.32 C21.38 51.94, 14.91 47.3, 8.75 41.25 M8.75 41.25 C0.01 33.14, -0.48 31.4, 8.75 24.75 M8.75 41.25 C-1.52 34.58, 1.69 34.34, 8.75 24.75 M8.75 24.75 C13.83 19.2, 16.76 16.37, 26.25 8.25 M8.75 24.75 C12.68 20.29, 17.55 16.4, 26.25 8.25 M26.25 8.25 C36.5 -0.63, 33.91 -0.01, 43.75 8.25 M26.25 8.25 C36.53 1.59, 35.33 2.1, 43.75 8.25" stroke="#000000" stroke-width="1" fill="none"></path></g><g stroke-linecap="round"><g transform="translate(1435.6867238649697 1173.6861890080568) rotate(0 -227.18282228831333 210.6599042763238)"><path d="M0.49 0.78 C-75.12 70.91, -379.07 351.29, -454.85 421.18 M-0.71 0.14 C-75.82 69.9, -376.75 349.3, -452.47 419.51" stroke="#000000" stroke-width="1" fill="none"></path></g><g transform="translate(1435.6867238649697 1173.6861890080568) rotate(0 -227.18282228831333 210.6599042763238)"><path d="M-437.49 391.78 C-440.01 398.24, -444.5 403.09, -453.86 419.59 M-439.77 392.52 C-442.35 400.64, -445.8 406.93, -451.88 419.35" stroke="#000000" stroke-width="1" fill="none"></path></g><g transform="translate(1435.6867238649697 1173.6861890080568) rotate(0 -227.18282228831333 210.6599042763238)"><path d="M-423.53 406.82 C-428.92 410.32, -436.21 412.13, -453.86 419.59 M-425.81 407.56 C-432.12 411.66, -439.39 413.83, -451.88 419.35" stroke="#000000" stroke-width="1" fill="none"></path></g></g><mask></mask><g stroke-linecap="round" transform="translate(10 1544.2920549752066) rotate(0 536.321830328665 529.0937733161492)"><path d="M32 0 M32 0 C337.84 -1.01, 645.11 -1.1, 1040.64 0 M32 0 C320.84 2.2, 608.87 2.82, 1040.64 0 M1040.64 0 C1061.87 -1.44, 1073.54 9.18, 1072.64 32 M1040.64 0 C1063.14 -2.14, 1073.44 10.02, 1072.64 32 M1072.64 32 C1074.24 364.78, 1074.93 697.59, 1072.64 1026.19 M1072.64 32 C1076.25 240.49, 1076.24 449.38, 1072.64 1026.19 M1072.64 1026.19 C1073.82 1045.82, 1063.82 1058.33, 1040.64 1058.19 M1072.64 1026.19 C1073.58 1045.25, 1061.77 1056.33, 1040.64 1058.19 M1040.64 1058.19 C712.16 1056.05, 384.63 1056.76, 32 1058.19 M1040.64 1058.19 C689.25 1061.54, 338.65 1061.55, 32 1058.19 M32 1058.19 C9.95 1059.34, -1.64 1047.77, 0 1026.19 M32 1058.19 C10.89 1057.11, -0.39 1045.88, 0 1026.19 M0 1026.19 C-3.22 769.26, -2.27 513.01, 0 32 M0 1026.19 C3.35 817.15, 3.82 608.64, 0 32 M0 32 C0.81 11.34, 10.62 1.64, 32 0 M0 32 C-2.06 11.46, 10.01 -0.6, 32 0" stroke="#000000" stroke-width="1" fill="none"></path></g><g transform="translate(125.64891220025129 1625.6298894104184) rotate(0 217 23)"><text x="0" y="32" font-family="Virgil, Segoe UI Emoji" font-size="36px" fill="#000000" text-anchor="start" style="white-space: pre;" direction="ltr">k8s - w/ argo workflows</text></g><g stroke-linecap="round" transform="translate(685.5823954364676 1580.9142105052865) rotate(0 146.9704925878193 82.399849942679)"><path d="M32 0 M32 0 C111.66 -1.48, 189.12 -0.44, 261.94 0 M32 0 C95.36 1.08, 158.04 0.46, 261.94 0 M261.94 0 C281.9 -0.78, 294.07 10.08, 293.94 32 M261.94 0 C281.96 0.66, 295.32 12.16, 293.94 32 M293.94 32 C294.75 66.39, 295.12 101.99, 293.94 132.8 M293.94 32 C294.48 59.47, 294.6 87.92, 293.94 132.8 M293.94 132.8 C292.85 154.89, 282.6 163.54, 261.94 164.8 M293.94 132.8 C291.8 153.65, 283.26 166.31, 261.94 164.8 M261.94 164.8 C187.56 164.74, 115.09 166.18, 32 164.8 M261.94 164.8 C187.38 164.59, 112.9 164.18, 32 164.8 M32 164.8 C11.73 164.23, -0.21 154.52, 0 132.8 M32 164.8 C8.76 162.99, -0.57 155.41, 0 132.8 M0 132.8 C-0.8 101.29, 2.15 65.31, 0 32 M0 132.8 C1.1 103, -0.81 74.35, 0 32 M0 32 C-0.11 10.71, 10.92 1.45, 32 0 M0 32 C0.87 12.78, 8.56 0.5, 32 0" stroke="#000000" stroke-width="1" fill="none"></path></g><g transform="translate(732.8057012515699 1619.847443800406) rotate(0 80.5 46)"><text x="0" y="32" font-family="Virgil, Segoe UI Emoji" font-size="36px" fill="#000000" text-anchor="start" style="white-space: pre;" direction="ltr">k8s/argo</text><text x="0" y="78" font-family="Virgil, Segoe UI Emoji" font-size="36px" fill="#000000" text-anchor="start" style="white-space: pre;" direction="ltr">agent</text></g><g stroke-linecap="round" transform="translate(295.0508470923385 1869.4727679575449) rotate(0 42.88647160759314 51.560140022611904)"><path d="M21.44 0 M21.44 0 C32.77 -1.16, 47.9 0.61, 64.33 0 M21.44 0 C34.61 -0.61, 49.81 0.3, 64.33 0 M64.33 0 C76.9 -0.92, 84.14 8.57, 85.77 21.44 M64.33 0 C77.37 1.99, 84.22 5.85, 85.77 21.44 M85.77 21.44 C86.04 42.11, 86.5 67.54, 85.77 81.68 M85.77 21.44 C86.16 40.02, 85.59 56.88, 85.77 81.68 M85.77 81.68 C84.86 97.25, 78.28 103.92, 64.33 103.12 M85.77 81.68 C84.57 96.48, 77.36 104.55, 64.33 103.12 M64.33 103.12 C51.66 102.84, 35.16 103.48, 21.44 103.12 M64.33 103.12 C47.15 103.92, 31.81 104.28, 21.44 103.12 M21.44 103.12 C5.59 103.9, -0.86 97, 0 81.68 M21.44 103.12 C5.33 101.36, -0.59 96.13, 0 81.68 M0 81.68 C2.17 64.63, -1.32 51.38, 0 21.44 M0 81.68 C0.79 58.16, 0.17 35.02, 0 21.44 M0 21.44 C0.96 5.74, 6.63 -0.05, 21.44 0 M0 21.44 C1.55 8.37, 8.53 -1.34, 21.44 0" stroke="#000000" stroke-width="1" fill="none"></path></g><g stroke-linecap="round" transform="translate(401.63035729982903 1997.4205387845855) rotate(0 42.88647160759314 51.560140022611904)"><path d="M21.44 0 M21.44 0 C32.24 0.26, 37.73 -0.5, 64.33 0 M21.44 0 C31.68 -0.44, 39.62 0.9, 64.33 0 M64.33 0 C77.29 -1.09, 86.44 5.71, 85.77 21.44 M64.33 0 C79.93 2.17, 85.59 7.18, 85.77 21.44 M85.77 21.44 C85.62 36.94, 85.09 52.64, 85.77 81.68 M85.77 21.44 C86.23 37.93, 86.63 55.93, 85.77 81.68 M85.77 81.68 C84.53 96.53, 80.58 102.72, 64.33 103.12 M85.77 81.68 C85.86 96.25, 80.41 103.87, 64.33 103.12 M64.33 103.12 C49.45 105.35, 33.52 104.16, 21.44 103.12 M64.33 103.12 C52.54 102.52, 42.34 102.45, 21.44 103.12 M21.44 103.12 C6.36 103, 1.94 95, 0 81.68 M21.44 103.12 C5.36 105.26, 1.91 95.68, 0 81.68 M0 81.68 C-0.25 68.08, 0.54 55.15, 0 21.44 M0 81.68 C0.54 65.78, -0.57 49.6, 0 21.44 M0 21.44 C-0.02 8.51, 7.01 0.22, 21.44 0 M0 21.44 C1.59 7.62, 9.29 0.69, 21.44 0" stroke="#000000" stroke-width="1" fill="none"></path></g><g stroke-linecap="round" transform="translate(401.82923879926193 2118.454133595983) rotate(0 42.88647160759314 51.560140022611904)"><path d="M21.44 0 M21.44 0 C31.68 -2.11, 41.33 -2.01, 64.33 0 M21.44 0 C36.68 -0.93, 53.95 -1.04, 64.33 0 M64.33 0 C77.54 0.67, 84.33 8.28, 85.77 21.44 M64.33 0 C80.8 -0.19, 85.8 5.96, 85.77 21.44 M85.77 21.44 C86.91 40.86, 87.65 61.76, 85.77 81.68 M85.77 21.44 C84.91 42.53, 85.87 61.75, 85.77 81.68 M85.77 81.68 C86.33 97.92, 78.23 103.2, 64.33 103.12 M85.77 81.68 C86.05 97.76, 79.37 104.07, 64.33 103.12 M64.33 103.12 C57.64 101.51, 47.81 102.21, 21.44 103.12 M64.33 103.12 C49 102.86, 33.85 102.4, 21.44 103.12 M21.44 103.12 C7.03 105.06, -0.97 94.42, 0 81.68 M21.44 103.12 C9.29 105.03, -0.29 93.87, 0 81.68 M0 81.68 C-0.77 60.29, -1.14 36.45, 0 21.44 M0 81.68 C0.2 63.17, 0.52 45.82, 0 21.44 M0 21.44 C1.37 7.01, 7.36 1.39, 21.44 0 M0 21.44 C0.47 9.29, 7.84 -0.14, 21.44 0" stroke="#000000" stroke-width="1" fill="none"></path></g><g stroke-linecap="round" transform="translate(500.84922282851517 1866.8158284563106) rotate(0 42.88647160759314 51.560140022611904)"><path d="M21.44 0 M21.44 0 C28.32 -0.89, 37.02 1.46, 64.33 0 M21.44 0 C31.41 0.96, 41.84 -0.25, 64.33 0 M64.33 0 C79.29 -1.44, 86.91 9.04, 85.77 21.44 M64.33 0 C78.44 0.03, 84.58 8.01, 85.77 21.44 M85.77 21.44 C84.75 46.78, 85.32 70.36, 85.77 81.68 M85.77 21.44 C86.53 36.78, 85.28 51.57, 85.77 81.68 M85.77 81.68 C87.73 95.57, 78.71 103.36, 64.33 103.12 M85.77 81.68 C87.56 96.72, 79.57 100.86, 64.33 103.12 M64.33 103.12 C47.24 104.32, 32.41 104.57, 21.44 103.12 M64.33 103.12 C54.92 102.68, 44.99 102.95, 21.44 103.12 M21.44 103.12 C9.08 102.15, -1.56 97.84, 0 81.68 M21.44 103.12 C9.06 102.83, -2.11 97.61, 0 81.68 M0 81.68 C0.91 64.93, -0.58 50.95, 0 21.44 M0 81.68 C-0.9 60.48, -0.33 38.12, 0 21.44 M0 21.44 C-0.14 7.36, 8.53 0.41, 21.44 0 M0 21.44 C2.14 7.84, 7.01 -0.89, 21.44 0" stroke="#000000" stroke-width="1" fill="none"></path></g><g stroke-linecap="round" transform="translate(604.7519504781565 1993.7202606552464) rotate(0 42.88647160759314 51.560140022611904)"><path d="M21.44 0 M21.44 0 C37.22 -1.26, 56.27 -0.72, 64.33 0 M21.44 0 C38.68 -0.43, 54.04 0.58, 64.33 0 M64.33 0 C77.19 1.13, 87.66 6.99, 85.77 21.44 M64.33 0 C78.66 -1.19, 86.63 9.44, 85.77 21.44 M85.77 21.44 C87.22 38.02, 86.73 54.24, 85.77 81.68 M85.77 21.44 C85.85 40.22, 85.72 61.22, 85.77 81.68 M85.77 81.68 C85.37 96.05, 78.86 104.67, 64.33 103.12 M85.77 81.68 C86.52 96.92, 76.36 104.55, 64.33 103.12 M64.33 103.12 C52.77 101.93, 40.69 101.2, 21.44 103.12 M64.33 103.12 C54.41 102.76, 45.09 104.12, 21.44 103.12 M21.44 103.12 C6.18 101.56, 1.86 97.63, 0 81.68 M21.44 103.12 C6.85 101.02, 1.64 94.93, 0 81.68 M0 81.68 C-1.1 62.53, 0.26 45.78, 0 21.44 M0 81.68 C0.56 60.41, 0.32 39.09, 0 21.44 M0 21.44 C0.22 8.53, 7.56 1.86, 21.44 0 M0 21.44 C0.69 7.01, 6.25 -2.06, 21.44 0" stroke="#000000" stroke-width="1" fill="none"></path></g><g stroke-linecap="round" transform="translate(710.7657082161529 1991.8126218418574) rotate(0 42.88647160759314 51.560140022611904)"><path d="M21.44 0 M21.44 0 C32.33 1.62, 45.39 1.93, 64.33 0 M21.44 0 C30.74 -0.83, 41.7 -1.01, 64.33 0 M64.33 0 C79.76 1.89, 85.61 7.17, 85.77 21.44 M64.33 0 C77.44 0.86, 88.06 6.71, 85.77 21.44 M85.77 21.44 C85.16 41.93, 84.46 61.27, 85.77 81.68 M85.77 21.44 C85.53 36.49, 87.12 50.78, 85.77 81.68 M85.77 81.68 C85.85 96.21, 80.18 103.77, 64.33 103.12 M85.77 81.68 C86.72 93.71, 80.05 102.84, 64.33 103.12 M64.33 103.12 C46.41 104.32, 28.61 101.76, 21.44 103.12 M64.33 103.12 C52.17 102.92, 41.78 102.49, 21.44 103.12 M21.44 103.12 C5.59 104.99, 1.66 95.72, 0 81.68 M21.44 103.12 C5.04 104.76, -1.04 96.18, 0 81.68 M0 81.68 C-0.81 66.69, 1.05 52.85, 0 21.44 M0 81.68 C0.34 60.66, 0.28 38.39, 0 21.44 M0 21.44 C1.39 7.56, 9.01 0.6, 21.44 0 M0 21.44 C-0.14 6.25, 5.09 1.85, 21.44 0" stroke="#000000" stroke-width="1" fill="none"></path></g><g stroke-linecap="round" transform="translate(808.194189316657 2125.704063086237) rotate(0 42.88647160759314 51.560140022611904)"><path d="M21.44 0 M21.44 0 C32.03 -0.74, 41.5 -1, 64.33 0 M21.44 0 C31.35 0.62, 41.63 0.85, 64.33 0 M64.33 0 C80.52 -0.16, 85.8 6.11, 85.77 21.44 M64.33 0 C79.49 2.29, 85.33 7.77, 85.77 21.44 M85.77 21.44 C86.95 35.73, 86.6 51.02, 85.77 81.68 M85.77 21.44 C86.3 44.23, 85.82 65.11, 85.77 81.68 M85.77 81.68 C86.01 97.53, 79.27 103.94, 64.33 103.12 M85.77 81.68 C83.51 97.4, 78.34 105.37, 64.33 103.12 M64.33 103.12 C55.83 101.35, 43.74 102.42, 21.44 103.12 M64.33 103.12 C51.12 103.92, 37.54 102.17, 21.44 103.12 M21.44 103.12 C9.01 104.78, -0.26 94.14, 0 81.68 M21.44 103.12 C8.78 102.08, 0.21 94.78, 0 81.68 M0 81.68 C0.38 62.05, 1.48 40.93, 0 21.44 M0 81.68 C0.12 67.05, -0.45 53.26, 0 21.44 M0 21.44 C0.41 9.01, 7.75 -0.12, 21.44 0 M0 21.44 C-0.89 5.09, 9 -1.58, 21.44 0" stroke="#000000" stroke-width="1" fill="none"></path></g><g stroke-linecap="round" transform="translate(606.8142749022156 2248.5280423258173) rotate(0 42.88647160759314 51.560140022611904)"><path d="M21.44 0 M21.44 0 C31.24 1.42, 41.86 -1.43, 64.33 0 M21.44 0 C37.51 -0.49, 53.48 1.18, 64.33 0 M64.33 0 C78.46 0.03, 84.74 7.9, 85.77 21.44 M64.33 0 C80.91 -0.44, 86.39 6.1, 85.77 21.44 M85.77 21.44 C84.63 43.81, 84.57 66.54, 85.77 81.68 M85.77 21.44 C86.37 41.79, 85.44 62.65, 85.77 81.68 M85.77 81.68 C87.33 96.62, 79.45 101.15, 64.33 103.12 M85.77 81.68 C87.2 95.69, 80.88 101.33, 64.33 103.12 M64.33 103.12 C48.22 101.81, 34.76 103.48, 21.44 103.12 M64.33 103.12 C53.85 102.61, 40.65 104.03, 21.44 103.12 M21.44 103.12 C8.81 102.86, -1.83 97.39, 0 81.68 M21.44 103.12 C6.11 103.33, -1.19 97.08, 0 81.68 M0 81.68 C1.5 68.92, 1.36 52.87, 0 21.44 M0 81.68 C-0.06 58.13, 0.7 34.58, 0 21.44 M0 21.44 C1.86 7.75, 7.03 -0.78, 21.44 0 M0 21.44 C-2.06 9, 5.57 -1.01, 21.44 0" stroke="#000000" stroke-width="1" fill="none"></path></g><g stroke-linecap="round" transform="translate(505.179517839367 2249.4453324842893) rotate(0 42.88647160759314 51.560140022611904)"><path d="M21.44 0 M21.44 0 C32.54 -1.12, 39.06 1.57, 64.33 0 M21.44 0 C30.72 0.42, 42.38 -0.22, 64.33 0 M64.33 0 C78.65 -1.03, 86.52 9.14, 85.77 21.44 M64.33 0 C78.19 0.62, 84.73 8.62, 85.77 21.44 M85.77 21.44 C86.45 37.39, 87.26 56.34, 85.77 81.68 M85.77 21.44 C85.74 35.81, 86.06 50.88, 85.77 81.68 M85.77 81.68 C86.42 96.79, 76.66 104.36, 64.33 103.12 M85.77 81.68 C85.49 98.23, 76.84 104.01, 64.33 103.12 M64.33 103.12 C51.77 102.27, 42.4 102.12, 21.44 103.12 M64.33 103.12 C52.67 102.76, 42.91 104.36, 21.44 103.12 M21.44 103.12 C6.89 101.29, 1.42 95.07, 0 81.68 M21.44 103.12 C7.36 101.93, 1.11 94.35, 0 81.68 M0 81.68 C1.07 66.38, -1.15 50.53, 0 21.44 M0 81.68 C-0.3 64.37, -0.21 46.6, 0 21.44 M0 21.44 C0.6 7.03, 6.37 -1.79, 21.44 0 M0 21.44 C1.85 5.57, 6.14 0.98, 21.44 0" stroke="#000000" stroke-width="1" fill="none"></path></g><g stroke-linecap="round" transform="translate(292.6148870349184 2248.815315602776) rotate(0 42.88647160759314 51.560140022611904)"><path d="M21.44 0 M21.44 0 C36.01 -1.5, 54.62 -1.71, 64.33 0 M21.44 0 C32.54 1.25, 42.42 0.32, 64.33 0 M64.33 0 C77.59 0.75, 87.76 6.77, 85.77 21.44 M64.33 0 C79.24 -1.04, 87.25 6.75, 85.77 21.44 M85.77 21.44 C84.36 43.15, 86.28 61.13, 85.77 81.68 M85.77 21.44 C86.4 41.3, 87.14 61.24, 85.77 81.68 M85.77 81.68 C86.6 94.01, 79.87 102.87, 64.33 103.12 M85.77 81.68 C88.03 94.18, 79.52 102.14, 64.33 103.12 M64.33 103.12 C48.74 102.93, 33.52 102, 21.44 103.12 M64.33 103.12 C50.95 103.84, 39.95 102.78, 21.44 103.12 M21.44 103.12 C5.32 104.54, -0.91 96.16, 0 81.68 M21.44 103.12 C5.95 104.23, -1.62 95.37, 0 81.68 M0 81.68 C0.8 62.59, 1.45 45.81, 0 21.44 M0 81.68 C0.73 59.7, 0.97 37.61, 0 21.44 M0 21.44 C-0.12 6.37, 5.36 1.61, 21.44 0 M0 21.44 C-1.58 6.14, 8.12 0.32, 21.44 0" stroke="#000000" stroke-width="1" fill="none"></path></g><g stroke-linecap="round" transform="translate(503.92399385187286 2375.089730920199) rotate(0 42.88647160759314 51.560140022611904)"><path d="M21.44 0 M21.44 0 C30.85 1.63, 41.17 -0.8, 64.33 0 M21.44 0 C36.69 -0.32, 50.05 -0.76, 64.33 0 M64.33 0 C79.37 1.99, 85.39 7.69, 85.77 21.44 M64.33 0 C77.58 1.47, 85.38 8.06, 85.77 21.44 M85.77 21.44 C87.15 37.19, 84.66 51.85, 85.77 81.68 M85.77 21.44 C85.77 46.17, 85.98 69.75, 85.77 81.68 M85.77 81.68 C83.81 97.22, 78.38 105.08, 64.33 103.12 M85.77 81.68 C83.98 96.86, 77.64 104.3, 64.33 103.12 M64.33 103.12 C54.99 102.35, 44.59 102.89, 21.44 103.12 M64.33 103.12 C48.25 103.62, 30.17 101.87, 21.44 103.12 M21.44 103.12 C8.57 102.21, 0.18 94.93, 0 81.68 M21.44 103.12 C8.26 101.5, -0.6 95.92, 0 81.68 M0 81.68 C-1.49 61.41, -0.34 38.8, 0 21.44 M0 81.68 C0.14 64.95, 0.24 46.31, 0 21.44 M0 21.44 C-0.78 5.36, 8.76 -1.37, 21.44 0 M0 21.44 C-1.01 8.12, 7.47 1.56, 21.44 0" stroke="#000000" stroke-width="1" fill="none"></path></g><g stroke-linecap="round" transform="translate(920.7683304935504 2248.0549659427397) rotate(0 42.88647160759314 51.560140022611904)"><path d="M21.44 0 M21.44 0 C39.35 -1.1, 53.5 0.91, 64.33 0 M21.44 0 C31.14 -0.39, 40.49 -0.03, 64.33 0 M64.33 0 C80.61 -0.38, 86.31 6.24, 85.77 21.44 M64.33 0 C80.1 -0.39, 86.69 5.95, 85.77 21.44 M85.77 21.44 C86.26 39.6, 86 62.19, 85.77 81.68 M85.77 21.44 C86.57 38.63, 86.21 54.19, 85.77 81.68 M85.77 81.68 C87.02 95.73, 80.58 101.56, 64.33 103.12 M85.77 81.68 C86.66 94.99, 79.81 101.3, 64.33 103.12 M64.33 103.12 C54.08 102.36, 45.03 105.08, 21.44 103.12 M64.33 103.12 C54.38 103.39, 41.85 104.23, 21.44 103.12 M21.44 103.12 C6.24 103.3, -1.04 96.94, 0 81.68 M21.44 103.12 C5.53 102.52, -0.06 97.52, 0 81.68 M0 81.68 C1.49 60.4, 1 39.02, 0 21.44 M0 81.68 C0.51 63.25, -0.48 43.84, 0 21.44 M0 21.44 C-1.79 8.76, 5.78 -0.88, 21.44 0 M0 21.44 C0.98 7.47, 8.71 2.15, 21.44 0" stroke="#000000" stroke-width="1" fill="none"></path></g><g stroke-linecap="round" transform="translate(918.8210055669313 2120.4411446358313) rotate(0 42.88647160759314 51.560140022611904)"><path d="M21.44 0 M21.44 0 C30.07 -1.38, 42.04 -1.73, 64.33 0 M21.44 0 C36.76 -0.48, 52.42 1.03, 64.33 0 M64.33 0 C78.24 0.54, 84.86 8.43, 85.77 21.44 M64.33 0 C78.23 0.91, 84.57 7.66, 85.77 21.44 M85.77 21.44 C84.9 36.77, 88.1 50.58, 85.77 81.68 M85.77 21.44 C86.17 40.17, 84.86 58.69, 85.77 81.68 M85.77 81.68 C85.53 97.93, 77.07 103.9, 64.33 103.12 M85.77 81.68 C84.79 97.16, 76.81 101.36, 64.33 103.12 M64.33 103.12 C51.78 102.86, 42.74 102.01, 21.44 103.12 M64.33 103.12 C54.67 102.56, 45.99 103.02, 21.44 103.12 M21.44 103.12 C7.33 102.08, 0.96 94.56, 0 81.68 M21.44 103.12 C6.55 103.06, 1.55 97.19, 0 81.68 M0 81.68 C0.33 61.35, 0.21 38.5, 0 21.44 M0 81.68 C0.18 59.37, -0.51 36.29, 0 21.44 M0 21.44 C1.61 5.78, 6.27 0.85, 21.44 0 M0 21.44 C0.32 8.71, 9.3 0.34, 21.44 0" stroke="#000000" stroke-width="1" fill="none"></path></g><g stroke-linecap="round" transform="translate(710.4495723315131 2122.733468054772) rotate(0 42.88647160759314 51.560140022611904)"><path d="M21.44 0 M21.44 0 C30.81 0.95, 40.91 1.42, 64.33 0 M21.44 0 C37.85 0.37, 56.28 -0.2, 64.33 0 M64.33 0 C79.16 -0.91, 87.05 6.81, 85.77 21.44 M64.33 0 C79.54 -1.2, 86.28 5.89, 85.77 21.44 M85.77 21.44 C86.57 45.21, 85.62 65.15, 85.77 81.68 M85.77 21.44 C86.65 39.25, 86.86 58.9, 85.77 81.68 M85.77 81.68 C87.73 94.42, 79.4 102.26, 64.33 103.12 M85.77 81.68 C86.96 94.15, 76.87 102.53, 64.33 103.12 M64.33 103.12 C51.05 104.89, 37.05 101.39, 21.44 103.12 M64.33 103.12 C46.55 103.78, 30.15 103.16, 21.44 103.12 M21.44 103.12 C6.11 104.08, -1.41 95.45, 0 81.68 M21.44 103.12 C7.09 104.67, 1.22 97.36, 0 81.68 M0 81.68 C0.81 66.99, -0.34 53.96, 0 21.44 M0 81.68 C-0.62 61.98, -1.46 43.87, 0 21.44 M0 21.44 C-1.37 6.27, 8 0.28, 21.44 0 M0 21.44 C1.56 9.3, 7.48 0.11, 21.44 0" stroke="#000000" stroke-width="1" fill="none"></path></g><g stroke-linecap="round" transform="translate(397.9986278914016 2250.886659577902) rotate(0 42.88647160759314 51.560140022611904)"><path d="M21.44 0 M21.44 0 C37.85 -1.21, 54.05 2.12, 64.33 0 M21.44 0 C34.34 1.22, 46.29 0.49, 64.33 0 M64.33 0 C77.72 1.28, 85.43 7.94, 85.77 21.44 M64.33 0 C77.42 0.51, 84.51 8.58, 85.77 21.44 M85.77 21.44 C87.35 41.59, 85.48 62.77, 85.77 81.68 M85.77 21.44 C84.98 44.81, 85.84 67.92, 85.77 81.68 M85.77 81.68 C84.22 96.75, 77.77 104.15, 64.33 103.12 M85.77 81.68 C83.95 94.21, 78.03 103.27, 64.33 103.12 M64.33 103.12 C54.82 102.12, 39.88 104.96, 21.44 103.12 M64.33 103.12 C48.62 102.27, 31.57 102.21, 21.44 103.12 M21.44 103.12 C8.11 101.71, -0.52 95.92, 0 81.68 M21.44 103.12 C8.69 104.34, 1.38 94.63, 0 81.68 M0 81.68 C-0.13 58.24, 1.39 34.79, 0 21.44 M0 81.68 C-0.57 57.11, 0.62 33.65, 0 21.44 M0 21.44 C-0.88 8, 7.43 1.35, 21.44 0 M0 21.44 C2.15 7.48, 7.25 0.4, 21.44 0" stroke="#000000" stroke-width="1" fill="none"></path></g><g stroke-linecap="round" transform="translate(190.03623209368243 1872.4323140168199) rotate(0 42.88647160759314 51.560140022611904)"><path d="M21.44 0 M21.44 0 C30 0.99, 43.33 -0.3, 64.33 0 M21.44 0 C35.36 -0.35, 47.56 -0.61, 64.33 0 M64.33 0 C79.91 -0.34, 86.57 6.1, 85.77 21.44 M64.33 0 C79.13 -1.26, 87.2 8.09, 85.77 21.44 M85.77 21.44 C85.54 35.85, 86.18 51.65, 85.77 81.68 M85.77 21.44 C86.64 41.34, 87 60.71, 85.77 81.68 M85.77 81.68 C86.55 95.12, 79.66 101.54, 64.33 103.12 M85.77 81.68 C84.02 95.38, 78.78 102.36, 64.33 103.12 M64.33 103.12 C52.18 101.98, 43.84 105.19, 21.44 103.12 M64.33 103.12 C51.56 103.52, 39.18 103.91, 21.44 103.12 M21.44 103.12 C5.74 102.6, -0.05 97.32, 0 81.68 M21.44 103.12 C8.37 104.5, -1.34 98.1, 0 81.68 M0 81.68 C-0.19 65.06, 0 47.53, 0 21.44 M0 81.68 C-0.86 62.6, -0.65 41.47, 0 21.44 M0 21.44 C0.85 7.43, 8.5 1.87, 21.44 0 M0 21.44 C0.34 7.25, 7.54 1.91, 21.44 0" stroke="#000000" stroke-width="1" fill="none"></path></g><g stroke-linecap="round" transform="translate(502.2860401465939 1992.754264832478) rotate(0 42.88647160759314 51.560140022611904)"><path d="M21.44 0 M21.44 0 C33.11 2.2, 42.34 0.33, 64.33 0 M21.44 0 C31.9 -0.16, 42.29 0.21, 64.33 0 M64.33 0 C78.28 0.79, 84.73 7.59, 85.77 21.44 M64.33 0 C77.36 1.43, 86.72 5.72, 85.77 21.44 M85.77 21.44 C86.44 41.42, 87.91 61.56, 85.77 81.68 M85.77 21.44 C85.06 42.97, 84.4 62.92, 85.77 81.68 M85.77 81.68 C84.92 97, 77.04 101.59, 64.33 103.12 M85.77 81.68 C85.18 96.13, 77.87 102.21, 64.33 103.12 M64.33 103.12 C50.17 104.78, 40.78 102.66, 21.44 103.12 M64.33 103.12 C55.48 102.41, 46.93 102.22, 21.44 103.12 M21.44 103.12 C6.63 103.07, 1.34 97.03, 0 81.68 M21.44 103.12 C8.53 101.78, 2.13 95.95, 0 81.68 M0 81.68 C1.43 59.9, 1.9 37.91, 0 21.44 M0 81.68 C1.04 63.28, -0.2 46.67, 0 21.44 M0 21.44 C0.28 8.5, 9.02 0.29, 21.44 0 M0 21.44 C0.11 7.54, 9.06 1.85, 21.44 0" stroke="#000000" stroke-width="1" fill="none"></path></g><g stroke-linecap="round" transform="translate(708.0977197427278 1859.3070373634932) rotate(0 42.88647160759314 51.56014002261202)"><path d="M21.44 0 M21.44 0 C37.63 -0.4, 50.07 -1.28, 64.33 0 M21.44 0 C36.19 -0.37, 51.03 -0.09, 64.33 0 M64.33 0 C79.42 -1.04, 86.21 6.05, 85.77 21.44 M64.33 0 C80.05 0.94, 84.34 7.78, 85.77 21.44 M85.77 21.44 C85.89 46.95, 86.3 70.16, 85.77 81.68 M85.77 21.44 C87.13 32.81, 86.53 45.31, 85.77 81.68 M85.77 81.68 C86.8 94.39, 77.1 102.61, 64.33 103.12 M85.77 81.68 C85.93 95.21, 77.72 102.98, 64.33 103.12 M64.33 103.12 C49.18 104.45, 30.04 100.96, 21.44 103.12 M64.33 103.12 C47.9 103.64, 31.79 102.9, 21.44 103.12 M21.44 103.12 C7.1 104.46, 1.06 97.18, 0 81.68 M21.44 103.12 C5.81 105.25, -0.02 97.54, 0 81.68 M0 81.68 C0.35 65.88, 0.54 46.25, 0 21.44 M0 81.68 C-0.15 65.51, 0.96 50.36, 0 21.44 M0 21.44 C1.35 9.02, 7.44 0.09, 21.44 0 M0 21.44 C0.4 9.06, 8.99 -1.2, 21.44 0" stroke="#000000" stroke-width="1" fill="none"></path></g><g stroke-linecap="round" transform="translate(605.5389078581068 1866.0996746850374) rotate(0 42.88647160759314 51.560140022611904)"><path d="M21.44 0 M21.44 0 C31.06 -0.38, 39.97 0.34, 64.33 0 M21.44 0 C38.12 0.53, 55.53 0.28, 64.33 0 M64.33 0 C77.58 0.44, 84.68 8.39, 85.77 21.44 M64.33 0 C79.57 -1.43, 86.41 9.39, 85.77 21.44 M85.77 21.44 C87.35 38.96, 86.62 53.21, 85.77 81.68 M85.77 21.44 C84.92 43.64, 85.27 65.58, 85.77 81.68 M85.77 81.68 C84.19 94.44, 78.11 103.25, 64.33 103.12 M85.77 81.68 C85.01 95.07, 78.49 105.35, 64.33 103.12 M64.33 103.12 C55.21 103.26, 40.94 104.94, 21.44 103.12 M64.33 103.12 C53.89 102.19, 42.23 102.87, 21.44 103.12 M21.44 103.12 C8.49 104.18, 1.2 94.8, 0 81.68 M21.44 103.12 C9.28 103.1, 1.57 95.81, 0 81.68 M0 81.68 C1.44 63.55, -0.54 43.45, 0 21.44 M0 81.68 C-0.92 69.43, -0.34 57.01, 0 21.44 M0 21.44 C1.87 7.44, 7.24 0.34, 21.44 0 M0 21.44 C1.91 8.99, 5.95 0.52, 21.44 0" stroke="#000000" stroke-width="1" fill="none"></path></g><g stroke-linecap="round" transform="translate(806.6491371644372 2250.2300349764737) rotate(0 42.88647160759314 51.560140022611904)"><path d="M21.44 0 M21.44 0 C36.77 -1, 52.79 2.02, 64.33 0 M21.44 0 C34.13 0.02, 45.93 -0.33, 64.33 0 M64.33 0 C79.07 -1.1, 87.02 7.97, 85.77 21.44 M64.33 0 C77.2 0.64, 88.02 6.69, 85.77 21.44 M85.77 21.44 C86.49 40.58, 83.88 59.31, 85.77 81.68 M85.77 21.44 C86.75 38.34, 86.88 55.31, 85.77 81.68 M85.77 81.68 C84.24 95.46, 78.76 102.46, 64.33 103.12 M85.77 81.68 C84.87 95.83, 80.85 102, 64.33 103.12 M64.33 103.12 C54.55 101.65, 46.7 102.57, 21.44 103.12 M64.33 103.12 C50.37 103.07, 37.79 104, 21.44 103.12 M21.44 103.12 C8.21 104.32, -1.17 97.83, 0 81.68 M21.44 103.12 C7.12 104.69, -0.16 96.22, 0 81.68 M0 81.68 C0.48 59.32, -0.9 35.4, 0 21.44 M0 81.68 C0.84 58.9, 1.09 36.78, 0 21.44 M0 21.44 C0.29 7.24, 7.49 1.66, 21.44 0 M0 21.44 C1.85 5.95, 7.67 1.3, 21.44 0" stroke="#000000" stroke-width="1" fill="none"></path></g><g stroke-linecap="round" transform="translate(920.9076828231391 2379.7095540957753) rotate(0 42.88647160759314 51.560140022611904)"><path d="M21.44 0 M21.44 0 C37.33 0.74, 57.27 -0.39, 64.33 0 M21.44 0 C35.29 0.12, 48.96 -0.05, 64.33 0 M64.33 0 C77.53 1.24, 86.59 5.91, 85.77 21.44 M64.33 0 C79.26 2.24, 85.31 7.24, 85.77 21.44 M85.77 21.44 C87.06 38.27, 87.48 58.78, 85.77 81.68 M85.77 21.44 C84.88 45.93, 84.51 68.62, 85.77 81.68 M85.77 81.68 C85.26 96.11, 77.96 102.33, 64.33 103.12 M85.77 81.68 C85.63 98.2, 77.51 101.33, 64.33 103.12 M64.33 103.12 C45.63 104.49, 29.69 103.25, 21.44 103.12 M64.33 103.12 C53.43 102.79, 43.72 103.35, 21.44 103.12 M21.44 103.12 C8.35 101.95, 1.85 95.95, 0 81.68 M21.44 103.12 C8.72 102.96, 0.25 97.57, 0 81.68 M0 81.68 C-0.68 61.59, -2.35 44.67, 0 21.44 M0 81.68 C0.4 68.41, 1.2 53.94, 0 21.44 M0 21.44 C0.09 7.49, 8.81 1.6, 21.44 0 M0 21.44 C-1.2 7.67, 8.45 0.48, 21.44 0" stroke="#000000" stroke-width="1" fill="none"></path></g><g stroke-linecap="round" transform="translate(808.8684020869334 2379.9327884273575) rotate(0 42.88647160759314 51.560140022611904)"><path d="M21.44 0 M21.44 0 C34.71 2.21, 46.1 0.76, 64.33 0 M21.44 0 C32.76 -0.45, 43.5 -0.47, 64.33 0 M64.33 0 C79.87 0.82, 84.53 7.7, 85.77 21.44 M64.33 0 C80.87 -0.46, 85.86 7.42, 85.77 21.44 M85.77 21.44 C84 45.44, 85.72 68.9, 85.77 81.68 M85.77 21.44 C86.52 34.04, 85.24 47.95, 85.77 81.68 M85.77 81.68 C85.91 95.31, 77.84 103, 64.33 103.12 M85.77 81.68 C88 94.85, 76.83 105.26, 64.33 103.12 M64.33 103.12 C49.33 101.82, 31.67 101.69, 21.44 103.12 M64.33 103.12 C49.37 103.68, 34.99 103.61, 21.44 103.12 M21.44 103.12 C5.98 104.97, -0.02 97.34, 0 81.68 M21.44 103.12 C6.99 103.37, 1.59 96.44, 0 81.68 M0 81.68 C-0.96 56.21, 1.43 32.96, 0 21.44 M0 81.68 C0.42 67.18, -0.11 50.86, 0 21.44 M0 21.44 C0.34 8.81, 8.75 -1.04, 21.44 0 M0 21.44 C0.52 8.45, 7.63 1.42, 21.44 0" stroke="#000000" stroke-width="1" fill="none"></path></g><g stroke-linecap="round" transform="translate(501.8594145400468 2121.8049034574665) rotate(0 42.88647160759314 51.560140022611904)"><path d="M21.44 0 M21.44 0 C36.35 -0.54, 47.83 -1.07, 64.33 0 M21.44 0 C36.53 0.05, 52.12 0.45, 64.33 0 M64.33 0 C79.45 -1.24, 86.33 9.1, 85.77 21.44 M64.33 0 C78.17 0.09, 86.05 8.93, 85.77 21.44 M85.77 21.44 C87.26 41.22, 87.98 59.93, 85.77 81.68 M85.77 21.44 C84.72 41.08, 85.26 62.32, 85.77 81.68 M85.77 81.68 C85.11 95.18, 78.5 105.06, 64.33 103.12 M85.77 81.68 C84.66 94.18, 80.77 105.03, 64.33 103.12 M64.33 103.12 C51.11 103.61, 38.66 104.39, 21.44 103.12 M64.33 103.12 C55.16 103.64, 45.25 102.53, 21.44 103.12 M21.44 103.12 C9 103.1, 1.37 95.83, 0 81.68 M21.44 103.12 C7.4 104.71, 0.47 98.11, 0 81.68 M0 81.68 C-1.76 63.4, -1.33 41.04, 0 21.44 M0 81.68 C0.85 61.19, -0.04 40.59, 0 21.44 M0 21.44 C1.66 8.75, 6.11 0.45, 21.44 0 M0 21.44 C1.3 7.63, 8.57 -1.05, 21.44 0" stroke="#000000" stroke-width="1" fill="none"></path></g><g stroke-linecap="round" transform="translate(602.6476850531005 2118.6485053198826) rotate(0 42.88647160759314 51.560140022611904)"><path d="M21.44 0 M21.44 0 C31.71 0.11, 41.83 0.85, 64.33 0 M21.44 0 C33.8 -0.32, 46.33 0.63, 64.33 0 M64.33 0 C77.38 0.55, 87.73 6.75, 85.77 21.44 M64.33 0 C78.72 0.28, 87.56 7.89, 85.77 21.44 M85.77 21.44 C84.93 43.95, 83.62 63.31, 85.77 81.68 M85.77 21.44 C85.32 36.68, 86.15 52.1, 85.77 81.68 M85.77 81.68 C84.99 95.85, 80.56 102.15, 64.33 103.12 M85.77 81.68 C83.98 98.12, 80.53 102.83, 64.33 103.12 M64.33 103.12 C55.57 101.89, 47.41 101.51, 21.44 103.12 M64.33 103.12 C53.11 104.01, 40.25 104.34, 21.44 103.12 M21.44 103.12 C7.13 104.49, -0.14 96.19, 0 81.68 M21.44 103.12 C8.74 103.59, 2.14 96.66, 0 81.68 M0 81.68 C1.84 62.59, -0.64 47.1, 0 21.44 M0 81.68 C-0.26 62.81, -0.24 44.68, 0 21.44 M0 21.44 C1.6 6.11, 7.6 1.13, 21.44 0 M0 21.44 C0.48 8.57, 6.1 -0.75, 21.44 0" stroke="#000000" stroke-width="1" fill="none"></path></g><g stroke-linecap="round" transform="translate(708.2348171845499 2247.845260937759) rotate(0 42.88647160759314 51.560140022611904)"><path d="M21.44 0 M21.44 0 C36.45 -0.83, 51.67 -0.26, 64.33 0 M21.44 0 C35.47 0.53, 50.99 -0.72, 64.33 0 M64.33 0 C79.18 1.95, 85.37 7.23, 85.77 21.44 M64.33 0 C78.9 1.79, 86.52 8.09, 85.77 21.44 M85.77 21.44 C88.11 32.03, 86.92 44.88, 85.77 81.68 M85.77 21.44 C85.04 42.68, 84.97 63.39, 85.77 81.68 M85.77 81.68 C85.65 97.91, 77.65 101.56, 64.33 103.12 M85.77 81.68 C87.92 97.88, 78.33 101.02, 64.33 103.12 M64.33 103.12 C47.38 104.12, 31.09 102.64, 21.44 103.12 M64.33 103.12 C52.17 102.76, 39.73 103.34, 21.44 103.12 M21.44 103.12 C8.51 102.98, 0.22 97.36, 0 81.68 M21.44 103.12 C7.62 105.26, 0.69 95.84, 0 81.68 M0 81.68 C-0.83 65.07, 1.39 50.5, 0 21.44 M0 81.68 C-0.52 59.7, 0.27 38.18, 0 21.44 M0 21.44 C-1.04 7.6, 8.28 0.42, 21.44 0 M0 21.44 C1.42 6.1, 6.4 -1.23, 21.44 0" stroke="#000000" stroke-width="1" fill="none"></path></g><g stroke-linecap="round" transform="translate(814.2066339215505 1859.7846235221036) rotate(0 42.88647160759314 51.560140022611904)"><path d="M21.44 0 M21.44 0 C37.67 1.17, 55.36 0.68, 64.33 0 M21.44 0 C32.69 0.65, 42.08 0.51, 64.33 0 M64.33 0 C80.58 -0.4, 85.85 7.39, 85.77 21.44 M64.33 0 C80.41 0.75, 86.72 4.89, 85.77 21.44 M85.77 21.44 C84.14 44.03, 84.84 66.1, 85.77 81.68 M85.77 21.44 C85.38 34.42, 84.92 47.99, 85.77 81.68 M85.77 81.68 C87.71 95, 77.07 104.99, 64.33 103.12 M85.77 81.68 C87.68 95.68, 76.52 104.76, 64.33 103.12 M64.33 103.12 C54.37 101.49, 41.97 102.85, 21.44 103.12 M64.33 103.12 C48 104.31, 32.82 104.06, 21.44 103.12 M21.44 103.12 C7.01 103.34, 1.39 96.38, 0 81.68 M21.44 103.12 C9.29 103.81, -0.14 95.08, 0 81.68 M0 81.68 C-1.36 69.85, -0.2 57.69, 0 21.44 M0 81.68 C0.08 58.8, 0.71 33.74, 0 21.44 M0 21.44 C0.45 8.28, 7.57 1.24, 21.44 0 M0 21.44 C-1.05 6.4, 5.92 1.97, 21.44 0" stroke="#000000" stroke-width="1" fill="none"></path></g><g stroke-linecap="round" transform="translate(400.82806663879705 1870.6951450284673) rotate(0 42.88647160759314 51.560140022611904)"><path d="M21.44 0 M21.44 0 C34.77 -0.15, 46.33 -0.85, 64.33 0 M21.44 0 C35.67 -0.89, 49.34 0.71, 64.33 0 M64.33 0 C78.23 0.08, 86.01 8.7, 85.77 21.44 M64.33 0 C79.37 0.95, 83.51 8.58, 85.77 21.44 M85.77 21.44 C87.14 37.91, 87.39 54.52, 85.77 81.68 M85.77 21.44 C85.29 34.52, 85.56 49.34, 85.77 81.68 M85.77 81.68 C84.8 94.42, 80.49 104.78, 64.33 103.12 M85.77 81.68 C85.48 93.87, 80.26 102.08, 64.33 103.12 M64.33 103.12 C49.66 102.81, 37.76 104.67, 21.44 103.12 M64.33 103.12 C50.12 102.86, 34.74 102.8, 21.44 103.12 M21.44 103.12 C7.36 104.51, 0.41 97.83, 0 81.68 M21.44 103.12 C7.84 102.98, -0.89 93.91, 0 81.68 M0 81.68 C1.26 59.04, 1.77 37.71, 0 21.44 M0 81.68 C0.8 63.53, -0.55 44, 0 21.44 M0 21.44 C1.13 7.57, 8.38 -0.91, 21.44 0 M0 21.44 C-0.75 5.92, 9.11 -2.04, 21.44 0" stroke="#000000" stroke-width="1" fill="none"></path></g><g stroke-linecap="round" transform="translate(295.48626678330993 2001.2885809179083) rotate(0 42.88647160759314 51.560140022611904)"><path d="M21.44 0 M21.44 0 C35.12 0.52, 48.44 0.17, 64.33 0 M21.44 0 C31.34 0.1, 43.45 -0.38, 64.33 0 M64.33 0 C78.71 0.24, 87.33 7.8, 85.77 21.44 M64.33 0 C79.57 -2.26, 87.2 6.86, 85.77 21.44 M85.77 21.44 C84.45 46.44, 83.72 67.86, 85.77 81.68 M85.77 21.44 C85.42 37.9, 86.78 53.99, 85.77 81.68 M85.77 81.68 C84.22 97.84, 80.28 102.86, 64.33 103.12 M85.77 81.68 C83.67 97.61, 77.58 103.33, 64.33 103.12 M64.33 103.12 C53.17 102.77, 44.4 103.88, 21.44 103.12 M64.33 103.12 C48.87 104.2, 33.37 103.63, 21.44 103.12 M21.44 103.12 C8.53 103.53, 1.86 96.57, 0 81.68 M21.44 103.12 C7.01 102.23, -2.06 97.82, 0 81.68 M0 81.68 C0.54 69.09, 2.14 54.08, 0 21.44 M0 81.68 C0.7 62.81, 0.12 45.55, 0 21.44 M0 21.44 C0.42 8.38, 6.23 -0.65, 21.44 0 M0 21.44 C-1.23 9.11, 5.11 -0.2, 21.44 0" stroke="#000000" stroke-width="1" fill="none"></path></g><g stroke-linecap="round" transform="translate(296.3372631086379 2124.333539601303) rotate(0 42.88647160759314 51.560140022611904)"><path d="M21.44 0 M21.44 0 C33.16 -0.97, 43.72 -1.02, 64.33 0 M21.44 0 C37.25 1.24, 52.31 0.31, 64.33 0 M64.33 0 C78.86 1.55, 86.42 7.97, 85.77 21.44 M64.33 0 C76.36 1.43, 85.49 9.4, 85.77 21.44 M85.77 21.44 C87.04 33.25, 84.48 47.7, 85.77 81.68 M85.77 21.44 C85.51 40.89, 85.09 57.61, 85.77 81.68 M85.77 81.68 C87.64 97.63, 78.37 101.29, 64.33 103.12 M85.77 81.68 C87.41 94.93, 78.84 101.93, 64.33 103.12 M64.33 103.12 C49.35 104.35, 35.52 104.21, 21.44 103.12 M64.33 103.12 C54.65 103.05, 43.71 103.81, 21.44 103.12 M21.44 103.12 C7.56 104.98, 0.6 95.85, 0 81.68 M21.44 103.12 C6.25 101.06, 1.85 94.4, 0 81.68 M0 81.68 C1.1 68.12, 0.04 50.91, 0 21.44 M0 81.68 C-1.02 62.79, 0.07 43.67, 0 21.44 M0 21.44 C1.24 6.23, 6.5 -1.07, 21.44 0 M0 21.44 C1.97 5.11, 6.95 2.18, 21.44 0" stroke="#000000" stroke-width="1" fill="none"></path></g><g stroke-linecap="round" transform="translate(606.9292743996562 2378.1843450001716) rotate(0 42.88647160759314 51.560140022611904)"><path d="M21.44 0 M21.44 0 C36.01 0.27, 51.57 1.07, 64.33 0 M21.44 0 C37.05 -0.32, 50.74 0, 64.33 0 M64.33 0 C80.18 0.65, 86.6 5.18, 85.77 21.44 M64.33 0 C80.05 -0.28, 88.03 5.36, 85.77 21.44 M85.77 21.44 C83.93 40.32, 85 62.39, 85.77 81.68 M85.77 21.44 C86.5 37.04, 84.76 54.53, 85.77 81.68 M85.77 81.68 C87.43 95.72, 76.79 104.54, 64.33 103.12 M85.77 81.68 C84.73 96.18, 77.43 104.23, 64.33 103.12 M64.33 103.12 C55.83 104.17, 45.85 101.94, 21.44 103.12 M64.33 103.12 C47.42 103.52, 31.34 103.62, 21.44 103.12 M21.44 103.12 C9.01 103.72, -0.12 95.2, 0 81.68 M21.44 103.12 C5.09 104.97, -1.58 94.96, 0 81.68 M0 81.68 C1.79 61.34, 0.01 40.77, 0 21.44 M0 81.68 C-0.26 59.16, -0.27 36.13, 0 21.44 M0 21.44 C-0.91 6.5, 6.08 1.71, 21.44 0 M0 21.44 C-2.04 6.95, 9.33 1.85, 21.44 0" stroke="#000000" stroke-width="1" fill="none"></path></g><g stroke-linecap="round" transform="translate(710.0053585561172 2380.6710401430114) rotate(0 42.88647160759314 51.560140022611904)"><path d="M21.44 0 M21.44 0 C34.02 -0.87, 46.95 1.04, 64.33 0 M21.44 0 C31.45 -0.38, 41.97 0.36, 64.33 0 M64.33 0 C79.27 0.82, 83.81 8.39, 85.77 21.44 M64.33 0 C78.34 2.25, 83.98 8.04, 85.77 21.44 M85.77 21.44 C84.55 36.42, 86.22 51.77, 85.77 81.68 M85.77 21.44 C85.25 36.36, 86.67 53.67, 85.77 81.68 M85.77 81.68 C85.52 94.14, 80.05 102.21, 64.33 103.12 M85.77 81.68 C85.98 94.78, 79.73 101.5, 64.33 103.12 M64.33 103.12 C53.64 104.61, 39.66 105.26, 21.44 103.12 M64.33 103.12 C51.62 103.78, 38.9 104.02, 21.44 103.12 M21.44 103.12 C7.75 103, -0.78 94.18, 0 81.68 M21.44 103.12 C9 101.54, -1.01 96.95, 0 81.68 M0 81.68 C-0.12 62.85, -0.06 45.51, 0 21.44 M0 81.68 C0.88 58.98, 0.93 35.41, 0 21.44 M0 21.44 C-0.65 6.08, 8.86 -1.78, 21.44 0 M0 21.44 C-0.2 9.33, 9 0.47, 21.44 0" stroke="#000000" stroke-width="1" fill="none"></path></g><g stroke-linecap="round" transform="translate(813.9477723189882 1991.7905238974763) rotate(0 42.88647160759314 51.560140022611904)"><path d="M21.44 0 M21.44 0 C34.92 1.15, 51.41 -1.34, 64.33 0 M21.44 0 C35.54 0.21, 50.33 0.41, 64.33 0 M64.33 0 C79.45 -1.97, 87.02 6.9, 85.77 21.44 M64.33 0 C80.88 -1.79, 86.66 6.16, 85.77 21.44 M85.77 21.44 C84.78 42.75, 84.64 63, 85.77 81.68 M85.77 21.44 C85.58 40.08, 87.19 56.72, 85.77 81.68 M85.77 81.68 C83.94 97.39, 77.72 103.3, 64.33 103.12 M85.77 81.68 C84.58 97.08, 77 102.52, 64.33 103.12 M64.33 103.12 C52.77 102.18, 40.66 103.33, 21.44 103.12 M64.33 103.12 C49.23 103.37, 33.67 103.47, 21.44 103.12 M21.44 103.12 C7.03 102.34, -1.79 97.58, 0 81.68 M21.44 103.12 C5.57 102.11, 0.98 96.3, 0 81.68 M0 81.68 C-0.47 59.87, 1.1 38.98, 0 21.44 M0 81.68 C0.07 67.36, -0.59 51.48, 0 21.44 M0 21.44 C-1.07 8.86, 5.37 -0.17, 21.44 0 M0 21.44 C2.18 9, 7.62 -1.72, 21.44 0" stroke="#000000" stroke-width="1" fill="none"></path></g><g stroke-linecap="round" transform="translate(913.9337521710104 1857.6492406016) rotate(0 42.88647160759314 51.56014002261202)"><path d="M21.44 0 M21.44 0 C33.31 1.06, 41.46 0.79, 64.33 0 M21.44 0 C38.61 0.76, 55.87 0.39, 64.33 0 M64.33 0 C76.66 1.24, 85.53 9.11, 85.77 21.44 M64.33 0 C76.84 0.89, 84.79 8.33, 85.77 21.44 M85.77 21.44 C85.45 34.09, 84.52 47.93, 85.77 81.68 M85.77 21.44 C86.41 46.17, 85.35 68.33, 85.77 81.68 M85.77 81.68 C87.19 95.07, 78.81 102.08, 64.33 103.12 M85.77 81.68 C86.88 94.35, 78.03 103.06, 64.33 103.12 M64.33 103.12 C47.41 105.23, 32.81 104.74, 21.44 103.12 M64.33 103.12 C51.96 104.35, 39.49 103.36, 21.44 103.12 M21.44 103.12 C6.37 101.33, 1.61 94.6, 0 81.68 M21.44 103.12 C6.14 104.1, 0.32 97.53, 0 81.68 M0 81.68 C0.26 59.63, 1.52 33.22, 0 21.44 M0 81.68 C0.28 61.79, -0.67 42.29, 0 21.44 M0 21.44 C1.71 5.37, 6.97 1.9, 21.44 0 M0 21.44 C1.85 7.62, 5.43 0.73, 21.44 0" stroke="#000000" stroke-width="1" fill="none"></path></g><g stroke-linecap="round" transform="translate(914.4708674994647 1991.9497192836793) rotate(0 42.88647160759314 51.560140022611904)"><path d="M21.44 0 M21.44 0 C36.08 -1.51, 49.62 1.69, 64.33 0 M21.44 0 C34.23 0.27, 45.87 -1.03, 64.33 0 M64.33 0 C79.87 -0.25, 87.73 5.59, 85.77 21.44 M64.33 0 C79.52 -0.98, 86.96 5.33, 85.77 21.44 M85.77 21.44 C84.96 34.12, 85.5 50.31, 85.77 81.68 M85.77 21.44 C86.13 36.46, 84.39 52.44, 85.77 81.68 M85.77 81.68 C84.87 96.16, 77.59 104.08, 64.33 103.12 M85.77 81.68 C84.15 95.37, 78.57 104.67, 64.33 103.12 M64.33 103.12 C51.05 102.85, 35.42 102.73, 21.44 103.12 M64.33 103.12 C51.93 103.51, 37.61 102.82, 21.44 103.12 M21.44 103.12 C5.36 104.73, -1.37 95.1, 0 81.68 M21.44 103.12 C8.12 103.44, 1.56 98.13, 0 81.68 M0 81.68 C1.64 64.33, -1.07 44.23, 0 21.44 M0 81.68 C-0.58 59.87, -0.66 39.57, 0 21.44 M0 21.44 C-1.78 6.97, 9.04 1.61, 21.44 0 M0 21.44 C0.47 5.43, 7.88 0.69, 21.44 0" stroke="#000000" stroke-width="1" fill="none"></path></g><g stroke-linecap="round" transform="translate(88.06301573516953 1589.5878789203052) rotate(0 253.46386590555062 71.31682919015498)"><path d="M32 0 M32 0 C201.3 -1.37, 372.4 -0.31, 474.93 0 M32 0 C195.73 -0.77, 360.04 -1.29, 474.93 0 M474.93 0 C495.5 -0.26, 507.78 10.79, 506.93 32 M474.93 0 C497.95 -0.05, 507.81 10.23, 506.93 32 M506.93 32 C507.1 63.28, 506.85 89.72, 506.93 110.63 M506.93 32 C508.4 49.68, 508.15 65.56, 506.93 110.63 M506.93 110.63 C507.57 133.25, 497.08 143.96, 474.93 142.63 M506.93 110.63 C508.57 132.74, 497.07 143.16, 474.93 142.63 M474.93 142.63 C378.22 140.62, 280.33 141.4, 32 142.63 M474.93 142.63 C346.09 142.43, 218.05 142.39, 32 142.63 M32 142.63 C12.13 143.13, 0.09 130.48, 0 110.63 M32 142.63 C9.82 141.97, 2.16 133.12, 0 110.63 M0 110.63 C-1.23 92.69, -0.16 72.39, 0 32 M0 110.63 C0.79 80.96, -0.44 52.31, 0 32 M0 32 C-1.41 11.17, 12.6 1.2, 32 0 M0 32 C-0.02 9.25, 8.9 -0.58, 32 0" stroke="#000000" stroke-width="1" fill="none"></path></g><g stroke-linecap="round"><g transform="translate(680.7636907614569 1662.9033679386357) rotate(0 -42.5181477718113 -0.141717164474926)"><path d="M-0.01 -0.12 C-13.91 -0.16, -70.09 -0.42, -84.32 -0.62 M-1.48 -1.22 C-15.4 -1.03, -70.86 0.79, -85.02 0.94" stroke="#000000" stroke-width="1" fill="none"></path></g><g transform="translate(680.7636907614569 1662.9033679386357) rotate(0 -42.5181477718113 -0.141717164474926)"><path d="M-57.27 -9.2 C-63.18 -8.56, -70.47 -3.92, -86.28 2.41 M-57.44 -10.25 C-65.21 -6.12, -75.86 -3.54, -85.18 0.15" stroke="#000000" stroke-width="1" fill="none"></path></g><g transform="translate(680.7636907614569 1662.9033679386357) rotate(0 -42.5181477718113 -0.141717164474926)"><path d="M-56.8 11.32 C-62.75 7.45, -70.14 7.59, -86.28 2.41 M-56.97 10.26 C-64.91 7.72, -75.71 3.64, -85.18 0.15" stroke="#000000" stroke-width="1" fill="none"></path></g></g><mask></mask><g stroke-linecap="round"><g transform="translate(2140.0785226436733 1528.0305671127785) rotate(0 -28.85592424452409 -74.99905116181435)"><path d="M0.74 -0.88 C-9 -25.58, -47.98 -124.45, -58.03 -149.29 M-0.33 1.27 C-10.18 -23.71, -48.41 -126.26, -58.46 -151.27" stroke="#000000" stroke-width="1" fill="none"></path></g><g transform="translate(2140.0785226436733 1528.0305671127785) rotate(0 -28.85592424452409 -74.99905116181435)"><path d="M-40.22 -127 C-44.68 -136.99, -52.33 -141.85, -58.72 -151.1 M-39.43 -129.38 C-47.22 -137.86, -54.27 -145.59, -57.93 -150.42" stroke="#000000" stroke-width="1" fill="none"></path></g><g transform="translate(2140.0785226436733 1528.0305671127785) rotate(0 -28.85592424452409 -74.99905116181435)"><path d="M-59.37 -119.62 C-57.34 -132.2, -58.58 -139.53, -58.72 -151.1 M-58.58 -122.01 C-59.19 -133.25, -58.99 -143.77, -57.93 -150.42" stroke="#000000" stroke-width="1" fill="none"></path></g></g><mask></mask><g stroke-linecap="round" transform="translate(308.7449091645133 499.52541440890457) rotate(0 372.0662359017041 425.2986039900503)"><path d="M32 0 M32 0 C168.08 -2.67, 304.12 -2.02, 712.13 0 M32 0 C226.18 1.57, 420.12 1.52, 712.13 0 M712.13 0 C731.64 0.32, 745 11.52, 744.13 32 M712.13 0 C734.67 -0.44, 741.87 12.75, 744.13 32 M744.13 32 C741.07 280.33, 742.05 527.88, 744.13 818.6 M744.13 32 C745.96 325.21, 745.8 617.87, 744.13 818.6 M744.13 818.6 C744.01 840.25, 734.95 851.81, 712.13 850.6 M744.13 818.6 C743.24 842.16, 732.69 851.18, 712.13 850.6 M712.13 850.6 C482.59 848.37, 252.59 847.7, 32 850.6 M712.13 850.6 C478.4 853.34, 244.01 853.53, 32 850.6 M32 850.6 C10.75 851.17, -1.33 839.37, 0 818.6 M32 850.6 C9.73 849.64, -1.63 840.75, 0 818.6 M0 818.6 C1.09 651.35, 0.6 484.42, 0 32 M0 818.6 C2.52 650.29, 2.38 482.07, 0 32 M0 32 C0.99 8.88, 8.84 -0.72, 32 0 M0 32 C0.93 11.9, 11.25 1.82, 32 0" stroke="#000000" stroke-width="1" fill="none"></path></g><g transform="translate(386.0719280717951 394.9915811672339) rotate(0 118 23)"><text x="0" y="32" font-family="Virgil, Segoe UI Emoji" font-size="36px" fill="#000000" text-anchor="start" style="white-space: pre;" direction="ltr">Assembly Line</text></g><g stroke-linecap="round" transform="translate(377.10647660428435 554.4388046474089) rotate(0 86.29247037479274 261.1187739912562)"><path d="M32 0 M32 0 C60.84 -0.99, 87.92 -0.4, 140.58 0 M32 0 C71.63 -0.95, 111.37 0.52, 140.58 0 M140.58 0 C161.44 0.66, 171.41 12.44, 172.58 32 M140.58 0 C163.05 -2.06, 170.48 9.84, 172.58 32 M172.58 32 C174.49 188.43, 173.66 344.27, 172.58 490.24 M172.58 32 C172.19 145.74, 172.4 259.75, 172.58 490.24 M172.58 490.24 C173.84 511.89, 160.3 521.86, 140.58 522.24 M172.58 490.24 C172.74 512.78, 164.15 522.64, 140.58 522.24 M140.58 522.24 C102.35 521.8, 62.19 523.28, 32 522.24 M140.58 522.24 C103.01 521.66, 65.7 521.43, 32 522.24 M32 522.24 C9.28 520.68, -1.49 511.68, 0 490.24 M32 522.24 C10.72 522.26, 2.06 509.8, 0 490.24 M0 490.24 C1.21 355.92, 0.58 223.42, 0 32 M0 490.24 C0.49 343.95, 0.93 197.12, 0 32 M0 32 C0.25 10.18, 11.43 -1.03, 32 0 M0 32 C2.1 12.37, 11.81 2.29, 32 0" stroke="#000000" stroke-width="1" fill="none"></path></g><g stroke-linecap="round" transform="translate(603.4841261589354 553.31812321397) rotate(0 86.29247037479274 262.239455424695)"><path d="M32 0 M32 0 C67.85 1.54, 103.29 -0.06, 140.58 0 M32 0 C64.02 -0.95, 96.13 -1, 140.58 0 M140.58 0 C162.02 0.05, 172.6 12.46, 172.58 32 M140.58 0 C160.14 -0.2, 171.72 9.11, 172.58 32 M172.58 32 C170.46 189.91, 170.18 347.75, 172.58 492.48 M172.58 32 C172.99 150.61, 173.13 269.27, 172.58 492.48 M172.58 492.48 C171.56 515.64, 163.4 525.48, 140.58 524.48 M172.58 492.48 C174.88 514.97, 163.51 525.18, 140.58 524.48 M140.58 524.48 C98.74 524.37, 60.25 523.33, 32 524.48 M140.58 524.48 C106.51 526.17, 71.45 524.56, 32 524.48 M32 524.48 C9.34 523.29, -0.33 513.75, 0 492.48 M32 524.48 C11.05 523, 0.81 513.83, 0 492.48 M0 492.48 C1.4 348.22, 0.48 205.94, 0 32 M0 492.48 C-0.51 317.48, -0.73 142.1, 0 32 M0 32 C0.75 8.85, 11.69 1.72, 32 0 M0 32 C0.21 9.03, 10.17 -0.39, 32 0" stroke="#000000" stroke-width="1" fill="none"></path></g><g stroke-linecap="round" transform="translate(826.4997314132701 555.559486080848) rotate(0 86.29247037479274 266.7221811584505)"><path d="M32 0 M32 0 C63.8 1.3, 93.09 -0.66, 140.58 0 M32 0 C61.6 -0.31, 91.83 0.52, 140.58 0 M140.58 0 C161.97 0.02, 174.37 9.12, 172.58 32 M140.58 0 C161.71 -0.87, 171.02 11.64, 172.58 32 M172.58 32 C172.25 126.47, 172.37 221.15, 172.58 501.44 M172.58 32 C173.7 187.24, 173.82 342.46, 172.58 501.44 M172.58 501.44 C174.41 524.26, 162.92 535.44, 140.58 533.44 M172.58 501.44 C173.74 524.37, 162.62 535.21, 140.58 533.44 M140.58 533.44 C99.58 534.46, 57.92 533.38, 32 533.44 M140.58 533.44 C115.91 535.19, 88.98 533.74, 32 533.44 M32 533.44 C9.48 533.12, -0.06 523.11, 0 501.44 M32 533.44 C9.18 534.26, 0.01 523.04, 0 501.44 M0 501.44 C-1.71 377.24, -0.56 254.33, 0 32 M0 501.44 C1.91 341.41, 1.77 181.25, 0 32 M0 32 C-1.82 11.69, 12.39 0.18, 32 0 M0 32 C-1.64 10.17, 10.27 -1.96, 32 0" stroke="#000000" stroke-width="1" fill="none"></path></g><g stroke-linecap="round" transform="translate(415.2096453412057 607.1108320190357) rotate(0 45.38759805427412 44.266916620835275)"><path d="M22.13 0 M22.13 0 C33.84 0.41, 45.82 0.26, 68.64 0 M22.13 0 C33.43 0.26, 45.85 1.23, 68.64 0 M68.64 0 C83.25 -0.32, 90.98 8.88, 90.78 22.13 M68.64 0 C81.18 -1.87, 92.1 7.37, 90.78 22.13 M90.78 22.13 C90.94 33.05, 89.31 43.17, 90.78 66.4 M90.78 22.13 C90.21 35.27, 89.88 48.26, 90.78 66.4 M90.78 66.4 C91.59 81.01, 85.31 90.19, 68.64 88.53 M90.78 66.4 C91.9 81.09, 82.63 86.78, 68.64 88.53 M68.64 88.53 C54.9 88.43, 44.34 88.95, 22.13 88.53 M68.64 88.53 C52.51 88.21, 35.62 89.2, 22.13 88.53 M22.13 88.53 C8 89.82, -0.53 80.76, 0 66.4 M22.13 88.53 C5.19 89.73, -0.75 82.91, 0 66.4 M0 66.4 C-1.28 54.25, -0.29 44.18, 0 22.13 M0 66.4 C1.08 55.08, -0.64 44.67, 0 22.13 M0 22.13 C1.43 9.1, 6.69 -0.99, 22.13 0 M0 22.13 C-1.37 5.76, 7.53 -1.47, 22.13 0" stroke="#000000" stroke-width="1" fill="none"></path></g><g stroke-linecap="round" transform="translate(412.40794175760834 746.6356704821748) rotate(0 45.38759805427412 44.266916620835275)"><path d="M22.13 0 M22.13 0 C38.07 -0.93, 52.5 -1.05, 68.64 0 M22.13 0 C36.46 0.01, 50.92 0.91, 68.64 0 M68.64 0 C84.38 -0.06, 90.11 5.85, 90.78 22.13 M68.64 0 C82.62 1.22, 89.88 5.82, 90.78 22.13 M90.78 22.13 C92.04 35.61, 90.75 50.06, 90.78 66.4 M90.78 22.13 C91.2 34.77, 90.62 45.92, 90.78 66.4 M90.78 66.4 C88.88 82.2, 82.75 90.06, 68.64 88.53 M90.78 66.4 C89.29 80.49, 82.49 86.92, 68.64 88.53 M68.64 88.53 C57.39 87.39, 47.89 90.02, 22.13 88.53 M68.64 88.53 C59.7 88.96, 48.99 87.6, 22.13 88.53 M22.13 88.53 C6.19 87.13, 0.13 79.88, 0 66.4 M22.13 88.53 C7.13 86.71, 1.65 81.86, 0 66.4 M0 66.4 C-1.38 54.58, -0.22 46.1, 0 22.13 M0 66.4 C0.67 52.72, 0.36 37.2, 0 22.13 M0 22.13 C1.84 5.63, 6.2 1.47, 22.13 0 M0 22.13 C0.85 5.77, 7.1 2.02, 22.13 0" stroke="#000000" stroke-width="1" fill="none"></path></g><g stroke-linecap="round" transform="translate(411.28726032416967 884.4794867951556) rotate(0 45.38759805427412 44.26691662083533)"><path d="M22.13 0 M22.13 0 C39.27 -1.51, 57.07 1.07, 68.64 0 M22.13 0 C34.52 0.28, 47.01 -0.01, 68.64 0 M68.64 0 C83.27 1.02, 90.19 7.89, 90.78 22.13 M68.64 0 C85 0.71, 92.25 6.76, 90.78 22.13 M90.78 22.13 C89.71 36.07, 89.07 46.38, 90.78 66.4 M90.78 22.13 C90.26 32.98, 89.81 44.78, 90.78 66.4 M90.78 66.4 C89.91 82.96, 81.55 86.89, 68.64 88.53 M90.78 66.4 C88.62 82.8, 85.38 87.75, 68.64 88.53 M68.64 88.53 C57.12 86.93, 45.12 86.63, 22.13 88.53 M68.64 88.53 C50.98 87.46, 33.29 87.63, 22.13 88.53 M22.13 88.53 C6.99 89.37, 0.5 80.42, 0 66.4 M22.13 88.53 C5.58 89.71, 1.6 81.61, 0 66.4 M0 66.4 C-1.59 56.55, 0.33 42.36, 0 22.13 M0 66.4 C-0.17 54.15, -0.05 40.58, 0 22.13 M0 22.13 C0.16 8.29, 6.73 -1.18, 22.13 0 M0 22.13 C0.72 5.51, 6.66 -0.29, 22.13 0" stroke="#000000" stroke-width="1" fill="none"></path></g><g stroke-linecap="round" transform="translate(641.0269541791374 597.5850398348052) rotate(0 45.38759805427412 44.266916620835275)"><path d="M22.13 0 M22.13 0 C37.34 1.01, 52.23 0.51, 68.64 0 M22.13 0 C39.05 -0.49, 55.56 0.22, 68.64 0 M68.64 0 C82.75 1.53, 89.49 6.8, 90.78 22.13 M68.64 0 C82.49 -1.62, 88.79 6.9, 90.78 22.13 M90.78 22.13 C89.63 34.2, 88.64 41.02, 90.78 66.4 M90.78 22.13 C90.75 30.77, 90.5 39.68, 90.78 66.4 M90.78 66.4 C90.91 79.88, 83.18 86.95, 68.64 88.53 M90.78 66.4 C92.43 81.86, 81.99 87.67, 68.64 88.53 M68.64 88.53 C57.98 89.09, 48.59 87.51, 22.13 88.53 M68.64 88.53 C58.52 88.42, 48.93 87.98, 22.13 88.53 M22.13 88.53 C6.2 90.01, 0.74 79.76, 0 66.4 M22.13 88.53 C7.1 90.56, 1.99 81.66, 0 66.4 M0 66.4 C0.01 51.8, -0.79 34.2, 0 22.13 M0 66.4 C0.23 51.29, 0.8 36.42, 0 22.13 M0 22.13 C0.42 6.77, 7.86 -0.12, 22.13 0 M0 22.13 C1.89 6.9, 9.4 1.96, 22.13 0" stroke="#000000" stroke-width="1" fill="none"></path></g><g stroke-linecap="round" transform="translate(639.9062727456985 756.7218033831246) rotate(0 45.38759805427412 44.266916620835275)"><path d="M22.13 0 M22.13 0 C38.79 -0.69, 54.61 0.74, 68.64 0 M22.13 0 C34.29 -0.1, 46.32 -0.56, 68.64 0 M68.64 0 C82.98 -1.36, 89.47 6.55, 90.78 22.13 M68.64 0 C82.41 2.07, 88.65 5.48, 90.78 22.13 M90.78 22.13 C90.41 30.27, 89.9 38.98, 90.78 66.4 M90.78 22.13 C89.7 36.42, 90.8 48.66, 90.78 66.4 M90.78 66.4 C90.03 79.58, 81.85 87.29, 68.64 88.53 M90.78 66.4 C90.33 82.12, 83.97 87.69, 68.64 88.53 M68.64 88.53 C58.72 87.97, 49.85 87.11, 22.13 88.53 M68.64 88.53 C56.73 88.59, 47.1 89.57, 22.13 88.53 M22.13 88.53 C7.82 89.54, 0.68 80.54, 0 66.4 M22.13 88.53 C7.56 89.58, -0.74 79.8, 0 66.4 M0 66.4 C0.11 50.86, 1.25 35.79, 0 22.13 M0 66.4 C0.07 53.02, -0.07 38.88, 0 22.13 M0 22.13 C1.7 6.2, 7.68 1.88, 22.13 0 M0 22.13 C-0.56 9.54, 8.06 -1.64, 22.13 0" stroke="#000000" stroke-width="1" fill="none"></path></g><g stroke-linecap="round" transform="translate(866.28392230035 584.136862633539) rotate(0 45.38759805427412 44.266916620835275)"><path d="M22.13 0 M22.13 0 C33.01 -0.09, 45.98 -0.98, 68.64 0 M22.13 0 C33.24 -1.24, 45.26 0.3, 68.64 0 M68.64 0 C85.12 -0.69, 89.79 6.19, 90.78 22.13 M68.64 0 C81.78 0.15, 89.31 7.13, 90.78 22.13 M90.78 22.13 C89.87 31.16, 89.51 40.15, 90.78 66.4 M90.78 22.13 C90.94 32.29, 89.91 43.7, 90.78 66.4 M90.78 66.4 C92.17 81.55, 82.51 90.37, 68.64 88.53 M90.78 66.4 C88.76 79.8, 85.09 89.38, 68.64 88.53 M68.64 88.53 C59.66 89.38, 48.23 89.62, 22.13 88.53 M68.64 88.53 C55.81 88.16, 43.94 87.93, 22.13 88.53 M22.13 88.53 C6.75 88.28, -0.87 82.04, 0 66.4 M22.13 88.53 C5.92 89.01, -0.7 81.71, 0 66.4 M0 66.4 C1.39 55.09, -1.54 40.68, 0 22.13 M0 66.4 C0.4 48.25, 0.65 31.19, 0 22.13 M0 22.13 C1.93 5.5, 5.98 -1.74, 22.13 0 M0 22.13 C0.27 6.67, 8.19 0.32, 22.13 0" stroke="#000000" stroke-width="1" fill="none"></path></g><g stroke-linecap="round" transform="translate(868.5252851672274 708.5325017452534) rotate(0 45.38759805427412 44.266916620835275)"><path d="M22.13 0 M22.13 0 C32.44 -1.45, 47.47 2.15, 68.64 0 M22.13 0 C33.79 0.34, 46.21 0.17, 68.64 0 M68.64 0 C81.81 1.43, 91.38 6.15, 90.78 22.13 M68.64 0 C82.54 -1.82, 89 5.95, 90.78 22.13 M90.78 22.13 C90.22 32.99, 91.98 48.36, 90.78 66.4 M90.78 22.13 C89.71 35.7, 91.32 50.82, 90.78 66.4 M90.78 66.4 C89.38 80.92, 85.16 90.26, 68.64 88.53 M90.78 66.4 C91.28 82.32, 84.18 87.82, 68.64 88.53 M68.64 88.53 C53.13 89.01, 38.36 87.76, 22.13 88.53 M68.64 88.53 C54.64 88.95, 41.61 88.98, 22.13 88.53 M22.13 88.53 C7.26 90.18, -0.41 82.91, 0 66.4 M22.13 88.53 C9.33 87.18, 0.35 83.32, 0 66.4 M0 66.4 C-1.85 55.28, -1.08 43.91, 0 22.13 M0 66.4 C0.42 56.97, 0.66 48.29, 0 22.13 M0 22.13 C1.84 9.14, 7.85 1.58, 22.13 0 M0 22.13 C-0.5 8.81, 6.68 1.08, 22.13 0" stroke="#000000" stroke-width="1" fill="none"></path></g><g stroke-linecap="round" transform="translate(866.0584788711279 827.3247336897736) rotate(0 45.38759805427412 44.26691662083533)"><path d="M22.13 0 M22.13 0 C34.55 0.98, 42.88 -0.38, 68.64 0 M22.13 0 C32.21 0.71, 42.93 -0.08, 68.64 0 M68.64 0 C81.83 1.02, 92.17 7.77, 90.78 22.13 M68.64 0 C82.38 2.11, 88.76 6.02, 90.78 22.13 M90.78 22.13 C90.7 40.43, 92.67 55.64, 90.78 66.4 M90.78 22.13 C91.01 38.1, 90.6 52.57, 90.78 66.4 M90.78 66.4 C91.4 79.53, 82.77 88.28, 68.64 88.53 M90.78 66.4 C89.78 82.18, 81.94 89.01, 68.64 88.53 M68.64 88.53 C57.74 88.09, 45.31 90.21, 22.13 88.53 M68.64 88.53 C57.19 89.91, 46.52 88.26, 22.13 88.53 M22.13 88.53 C8.46 87.87, 1.93 79.28, 0 66.4 M22.13 88.53 C5.77 86.53, 0.27 80.45, 0 66.4 M0 66.4 C1.71 52.02, 1.52 36.26, 0 22.13 M0 66.4 C0.44 49.54, -0.15 34.14, 0 22.13 M0 22.13 C-1.34 5.6, 6.32 1.63, 22.13 0 M0 22.13 C2.08 5.63, 8.28 1.48, 22.13 0" stroke="#000000" stroke-width="1" fill="none"></path></g><g stroke-linecap="round" transform="translate(862.9218780000333 955.0824171018038) rotate(0 45.38759805427412 44.26691662083522)"><path d="M22.13 0 M22.13 0 C35.26 -1.61, 53.35 0.31, 68.64 0 M22.13 0 C33.71 -0.19, 44.06 -0.07, 68.64 0 M68.64 0 C82.78 0.16, 91.68 6.73, 90.78 22.13 M68.64 0 C82.04 0.72, 88.91 6.66, 90.78 22.13 M90.78 22.13 C89.31 35.27, 89.98 48.06, 90.78 66.4 M90.78 22.13 C92.02 35.99, 90.55 48.31, 90.78 66.4 M90.78 66.4 C92.65 80.67, 85.28 89.13, 68.64 88.53 M90.78 66.4 C89.13 82.41, 82.64 90.76, 68.64 88.53 M68.64 88.53 C59.29 87.51, 50.18 88.41, 22.13 88.53 M68.64 88.53 C51.19 88.42, 32.78 88.34, 22.13 88.53 M22.13 88.53 C8.32 89.15, -1.63 80.58, 0 66.4 M22.13 88.53 C6.98 86.99, -2.05 79.94, 0 66.4 M0 66.4 C0.39 50.81, 0.19 34, 0 22.13 M0 66.4 C0.9 53.12, 0.22 38.66, 0 22.13 M0 22.13 C-1.29 6.35, 8.68 0.75, 22.13 0 M0 22.13 C0.51 6.27, 6.72 0.29, 22.13 0" stroke="#000000" stroke-width="1" fill="none"></path></g><g stroke-linecap="round" transform="translate(391.6753352389894 1131.5897428684257) rotate(0 281.8513805098752 92.4562182587066)"><path d="M32 0 M32 0 C166.14 -1.38, 301.05 -1.56, 531.7 0 M32 0 C166.39 0.62, 300.52 0.75, 531.7 0 M531.7 0 C553.52 -0.12, 565.35 10.25, 563.7 32 M531.7 0 C555.06 1.96, 562.35 11.02, 563.7 32 M563.7 32 C564.01 78.2, 564.5 126.61, 563.7 152.91 M563.7 32 C561.7 80.07, 562.26 128.27, 563.7 152.91 M563.7 152.91 C563.98 176.09, 554.8 185.38, 531.7 184.91 M563.7 152.91 C565.52 173.74, 554.47 184.21, 531.7 184.91 M531.7 184.91 C358.13 183.14, 184.49 182.57, 32 184.91 M531.7 184.91 C407.81 186.88, 284.79 186.84, 32 184.91 M32 184.91 C12.02 185.11, -0.35 174.24, 0 152.91 M32 184.91 C12.57 185.93, 0.32 173.59, 0 152.91 M0 152.91 C1.37 124.88, -0.34 95.39, 0 32 M0 152.91 C1.35 115.45, 0.61 78.13, 0 32 M0 32 C-1.45 9.78, 11.95 -0.64, 32 0 M0 32 C2.02 9.8, 10.8 2.05, 32 0" stroke="#000000" stroke-width="1" fill="none"></path></g><g stroke-linecap="round"><g transform="translate(481.3465207898846 1083.4004412305549) rotate(0 26.29925461032937 18.97934284843734)"><path d="M-0.98 -0.35 C7.86 5.99, 44.63 31.93, 53.58 38.42 M0.71 -1.58 C9.32 4.87, 43.47 32.68, 52.52 39.53" stroke="#000000" stroke-width="1" fill="none"></path></g><g transform="translate(481.3465207898846 1083.4004412305549) rotate(0 26.29925461032937 18.97934284843734)"><path d="M23.45 29.8 C32.6 31.85, 42.77 38.52, 54.33 38.01 M24.71 30.24 C33.58 33.24, 44.25 36.88, 52.66 39.25" stroke="#000000" stroke-width="1" fill="none"></path></g><g transform="translate(481.3465207898846 1083.4004412305549) rotate(0 26.29925461032937 18.97934284843734)"><path d="M36.15 13.68 C40.95 21.22, 46.71 33.48, 54.33 38.01 M37.41 14.13 C42.08 22.63, 48.44 31.73, 52.66 39.25" stroke="#000000" stroke-width="1" fill="none"></path></g></g><mask></mask><g stroke-linecap="round"><g transform="translate(690.8258493957384 1078.7970340633601) rotate(0 -1.5838648794401706 22.518639221326794)"><path d="M-0.34 0.15 C-1 7.73, -3.39 37.2, -3.69 44.92 M1.68 -0.82 C0.8 6.92, -4.18 38.33, -4.85 45.85" stroke="#000000" stroke-width="1" fill="none"></path></g><g transform="translate(690.8258493957384 1078.7970340633601) rotate(0 -1.5838648794401706 22.518639221326794)"><path d="M-9.66 22.66 C-10.3 32.51, -6.11 38.28, -3.28 44.41 M-9.03 22.95 C-8.41 29.99, -7.95 34.41, -5.04 45.66" stroke="#000000" stroke-width="1" fill="none"></path></g><g transform="translate(690.8258493957384 1078.7970340633601) rotate(0 -1.5838648794401706 22.518639221326794)"><path d="M6.01 24.68 C0.33 33.83, -0.53 38.95, -3.28 44.41 M6.64 24.97 C3.24 31.44, -0.31 35.35, -5.04 45.66" stroke="#000000" stroke-width="1" fill="none"></path></g></g><mask></mask><g stroke-linecap="round"><g transform="translate(913.9128832215017 1091.2452112646265) rotate(0 -14.596616241027064 19.76498171045705)"><path d="M-0.97 -0.81 C-5.96 6.09, -24.73 33.71, -29.42 40.34 M0.73 1.38 C-4.4 8.06, -24.92 32.34, -29.92 38.8" stroke="#000000" stroke-width="1" fill="none"></path></g><g transform="translate(913.9128832215017 1091.2452112646265) rotate(0 -14.596616241027064 19.76498171045705)"><path d="M-23.17 16.8 C-22.97 25.35, -28.05 32.32, -28.23 37.45 M-22.76 14.8 C-23.2 22.35, -27.04 27.56, -30.57 39.37" stroke="#000000" stroke-width="1" fill="none"></path></g><g transform="translate(913.9128832215017 1091.2452112646265) rotate(0 -14.596616241027064 19.76498171045705)"><path d="M-10.02 27.48 C-14.28 32.23, -23.91 35.5, -28.23 37.45 M-9.6 25.48 C-13.48 30.19, -20.82 32.56, -30.57 39.37" stroke="#000000" stroke-width="1" fill="none"></path></g></g><mask></mask><g stroke-linecap="round" transform="translate(1228.148035730157 10) rotate(0 214.82940222009438 333.40272644806316)"><path d="M32 0 M32 0 C169.58 -2.26, 309.71 -2.5, 397.66 0 M32 0 C145 2.28, 257.29 1.87, 397.66 0 M397.66 0 C418.85 -0.08, 428.29 12.16, 429.66 32 M397.66 0 C417.28 -2.05, 431.61 10.12, 429.66 32 M429.66 32 C430.77 191.4, 431.16 350.7, 429.66 634.81 M429.66 32 C430.23 236.24, 430.74 440.98, 429.66 634.81 M429.66 634.81 C428.06 656.29, 420.14 665.52, 397.66 666.81 M429.66 634.81 C431.5 654.35, 416.82 667.19, 397.66 666.81 M397.66 666.81 C259.99 665.09, 121.66 663.77, 32 666.81 M397.66 666.81 C254.81 669.01, 112.82 668.79, 32 666.81 M32 666.81 C11.75 666.88, 0.18 657.17, 0 634.81 M32 666.81 C8.92 665.5, -1.91 656.41, 0 634.81 M0 634.81 C2.31 505.85, 1.02 377.49, 0 32 M0 634.81 C0.85 512.13, 0.88 389.09, 0 32 M0 32 C-0.13 9.07, 9.16 -1.44, 32 0 M0 32 C1.53 11.07, 9.05 -2.01, 32 0" stroke="#000000" stroke-width="1" fill="none"></path></g><g stroke-linecap="round" transform="translate(1394.6852181667746 44.528752432724104) rotate(0 37.54282802020202 41.46521303723807)"><path d="M18.77 0 M18.77 0 C28.36 0.62, 33.88 -1.48, 56.31 0 M18.77 0 C31.55 0.85, 42.18 0.94, 56.31 0 M56.31 0 C67.82 1.62, 75.87 7.89, 75.09 18.77 M56.31 0 C70.9 -1.5, 74.02 8.36, 75.09 18.77 M75.09 18.77 C73.99 35.23, 75.65 49.44, 75.09 64.16 M75.09 18.77 C76.48 34.19, 76 51.68, 75.09 64.16 M75.09 64.16 C75.81 75.18, 67.82 81.16, 56.31 82.93 M75.09 64.16 C76.27 78.64, 67.03 81.5, 56.31 82.93 M56.31 82.93 C43.94 83.53, 30.88 83.82, 18.77 82.93 M56.31 82.93 C48.26 82.22, 39.44 83.38, 18.77 82.93 M18.77 82.93 C4.95 82.52, -0.32 77.61, 0 64.16 M18.77 82.93 C5.89 83.53, -1.21 77.55, 0 64.16 M0 64.16 C2.36 47.22, 1.79 29.86, 0 18.77 M0 64.16 C0.56 51.03, 0.32 35.77, 0 18.77 M0 18.77 C-0.12 6.1, 6.5 -0.85, 18.77 0 M0 18.77 C1.04 8.05, 7.33 2.28, 18.77 0" stroke="#000000" stroke-width="1" fill="none"></path></g><g stroke-linecap="round" transform="translate(1266.9275347547436 226.0791446498206) rotate(0 44.827257337554784 43.70657590411582)"><path d="M21.85 0 M21.85 0 C39.33 -0.26, 55.2 -2.18, 67.8 0 M21.85 0 C37.25 -0.67, 53.24 0.35, 67.8 0 M67.8 0 C84.08 -1.57, 88.41 7.61, 89.65 21.85 M67.8 0 C84.13 0.57, 89.09 7.86, 89.65 21.85 M89.65 21.85 C89.7 30.38, 91.2 39.69, 89.65 65.56 M89.65 21.85 C89.72 37.44, 90.39 53.17, 89.65 65.56 M89.65 65.56 C90.18 79.08, 83.14 89.1, 67.8 87.41 M89.65 65.56 C87.49 79.07, 84.6 87.98, 67.8 87.41 M67.8 87.41 C49.23 87.25, 34.36 89.33, 21.85 87.41 M67.8 87.41 C54.19 87.51, 40.31 87.84, 21.85 87.41 M21.85 87.41 C8.84 88.35, 1.98 81.83, 0 65.56 M21.85 87.41 C8.45 89.65, -0.26 81.24, 0 65.56 M0 65.56 C1.48 53.11, 0.66 42.84, 0 21.85 M0 65.56 C0.53 52.23, -1.02 38.79, 0 21.85 M0 21.85 C-0.01 7.31, 5.39 1.66, 21.85 0 M0 21.85 C1.25 6.62, 9.22 0.72, 21.85 0" stroke="#000000" stroke-width="1" fill="none"></path></g><g stroke-linecap="round" transform="translate(1404.7713510677245 219.3550560491874) rotate(0 44.827257337554784 43.70657590411582)"><path d="M21.85 0 M21.85 0 C36.97 -1.79, 51.48 0.25, 67.8 0 M21.85 0 C39.89 0.04, 58.16 -0.31, 67.8 0 M67.8 0 C83.27 1.56, 90.59 9.27, 89.65 21.85 M67.8 0 C84.32 1.17, 91.9 7.02, 89.65 21.85 M89.65 21.85 C90.26 38.93, 87.4 53.35, 89.65 65.56 M89.65 21.85 C89.26 31.64, 89.21 39.27, 89.65 65.56 M89.65 65.56 C87.73 80.12, 82.4 85.52, 67.8 87.41 M89.65 65.56 C91.57 81.38, 81.7 89.35, 67.8 87.41 M67.8 87.41 C53.38 87.11, 36.87 86.59, 21.85 87.41 M67.8 87.41 C49.52 86.75, 31.31 87.9, 21.85 87.41 M21.85 87.41 C6.44 88.73, -0.42 80.2, 0 65.56 M21.85 87.41 C6.95 88.92, -0.27 81.64, 0 65.56 M0 65.56 C-0.93 49.46, 1.94 32.13, 0 21.85 M0 65.56 C-0.69 52.81, 0.9 40.45, 0 21.85 M0 21.85 C-0.91 6.32, 6.34 -0.36, 21.85 0 M0 21.85 C-0.95 5.42, 9.12 -1.27, 21.85 0" stroke="#000000" stroke-width="1" fill="none"></path></g><g stroke-linecap="round" transform="translate(1524.6842644456833 224.9584632163817) rotate(0 44.827257337554784 43.70657590411582)"><path d="M21.85 0 M21.85 0 C37.11 -0.26, 56.05 1.83, 67.8 0 M21.85 0 C35.31 0.15, 48.5 0.48, 67.8 0 M67.8 0 C83.93 0.93, 91.64 8.98, 89.65 21.85 M67.8 0 C83.54 2.24, 89.39 8.4, 89.65 21.85 M89.65 21.85 C91.87 30.32, 91.06 40.97, 89.65 65.56 M89.65 21.85 C90.35 34.33, 88.8 46.7, 89.65 65.56 M89.65 65.56 C89.64 80.15, 80.48 89.08, 67.8 87.41 M89.65 65.56 C90.91 79.46, 84.31 88.14, 67.8 87.41 M67.8 87.41 C54.73 87.12, 41.13 89.58, 21.85 87.41 M67.8 87.41 C54.82 87.61, 43.85 87.02, 21.85 87.41 M21.85 87.41 C8.6 87, 0.07 79.84, 0 65.56 M21.85 87.41 C8.79 87.14, 1.51 81.58, 0 65.56 M0 65.56 C0.19 56.34, -1.27 43.46, 0 21.85 M0 65.56 C0.03 54.09, 0.3 40.52, 0 21.85 M0 21.85 C-0.96 6.34, 6.93 -0.83, 21.85 0 M0 21.85 C-1.87 9.12, 6.01 0.15, 21.85 0" stroke="#000000" stroke-width="1" fill="none"></path></g><g stroke-linecap="round" transform="translate(1328.5650135938813 398.6640853994062) rotate(0 44.827257337554784 43.70657590411582)"><path d="M21.85 0 M21.85 0 C36.74 0.76, 53.92 0.27, 67.8 0 M21.85 0 C34.6 -0.39, 47.56 0.81, 67.8 0 M67.8 0 C83.31 1.98, 91.35 8.3, 89.65 21.85 M67.8 0 C84.61 -0.26, 90.77 5.89, 89.65 21.85 M89.65 21.85 C87.85 39.71, 88.04 55.4, 89.65 65.56 M89.65 21.85 C89.07 34.84, 88.53 49.68, 89.65 65.56 M89.65 65.56 C89.68 78.24, 84.03 88.5, 67.8 87.41 M89.65 65.56 C88.99 82.07, 83.09 87.06, 67.8 87.41 M67.8 87.41 C56.63 86.9, 48.4 86.69, 21.85 87.41 M67.8 87.41 C52.2 87.31, 35.83 87.68, 21.85 87.41 M21.85 87.41 C6.87 87.48, -0.29 81.44, 0 65.56 M21.85 87.41 C7.01 88.92, 1.45 78.99, 0 65.56 M0 65.56 C1.97 54.87, 0.03 47.17, 0 21.85 M0 65.56 C1.15 54.04, -0.12 41.71, 0 21.85 M0 21.85 C-0.94 6.93, 6.46 -1.62, 21.85 0 M0 21.85 C1.83 6.01, 7.44 -0.99, 21.85 0" stroke="#000000" stroke-width="1" fill="none"></path></g><g stroke-linecap="round" transform="translate(1463.0467856065452 397.5434039659673) rotate(0 44.827257337554784 43.70657590411582)"><path d="M21.85 0 M21.85 0 C36.47 1.92, 50.23 -0.45, 67.8 0 M21.85 0 C34.94 0.39, 49.65 0.41, 67.8 0 M67.8 0 C84.35 1.7, 90.67 9.23, 89.65 21.85 M67.8 0 C82.11 1.12, 88.26 9.24, 89.65 21.85 M89.65 21.85 C91.09 35.07, 89.96 52.26, 89.65 65.56 M89.65 21.85 C88.99 32.37, 89.92 44.82, 89.65 65.56 M89.65 65.56 C87.76 81.79, 83.46 86.83, 67.8 87.41 M89.65 65.56 C91.59 80.85, 82.02 85.86, 67.8 87.41 M67.8 87.41 C51.64 89.28, 35.8 88.17, 21.85 87.41 M67.8 87.41 C54.06 87.07, 40.4 87.28, 21.85 87.41 M21.85 87.41 C7.35 87.12, 1.31 79.89, 0 65.56 M21.85 87.41 C8.8 88.87, -1.14 77.97, 0 65.56 M0 65.56 C-1.63 54.74, -0.33 43.7, 0 21.85 M0 65.56 C0.21 55.35, -0.43 45.59, 0 21.85 M0 21.85 C-0.36 6.46, 5.66 1.59, 21.85 0 M0 21.85 C-1.27 7.44, 6.29 -0.71, 21.85 0" stroke="#000000" stroke-width="1" fill="none"></path></g><g stroke-linecap="round" transform="translate(1391.323173866458 536.5079017123869) rotate(0 44.827257337554784 43.70657590411582)"><path d="M21.85 0 M21.85 0 C33.71 -0.2, 41.3 -0.21, 67.8 0 M21.85 0 C35.74 0.97, 49.18 1.19, 67.8 0 M67.8 0 C84.07 1.01, 91.6 7.06, 89.65 21.85 M67.8 0 C83.49 -1.39, 91.61 8.29, 89.65 21.85 M89.65 21.85 C87.42 38.91, 89.59 55.41, 89.65 65.56 M89.65 21.85 C88.5 37.63, 89.48 52.48, 89.65 65.56 M89.65 65.56 C91.32 81.22, 81.79 89.1, 67.8 87.41 M89.65 65.56 C90.38 79.77, 80.82 88.34, 67.8 87.41 M67.8 87.41 C55.98 86.57, 41.07 87.4, 21.85 87.41 M67.8 87.41 C57.56 88.21, 47.95 87.58, 21.85 87.41 M21.85 87.41 C6.99 88.72, -0.24 81.44, 0 65.56 M21.85 87.41 C8.74 86.27, -2.16 78.81, 0 65.56 M0 65.56 C-0.59 52.56, -1.03 38.78, 0 21.85 M0 65.56 C-0.81 52.47, -0.83 40.17, 0 21.85 M0 21.85 C-0.83 5.66, 8.88 -1.11, 21.85 0 M0 21.85 C0.15 6.29, 6.57 -2.07, 21.85 0" stroke="#000000" stroke-width="1" fill="none"></path></g><g stroke-linecap="round"><g transform="translate(1426.064298303063 129.70054137407806) rotate(0 -44.96901593233315 46.088791926034645)"><path d="M1.12 -0.07 C-13.85 15.2, -74.81 76.47, -89.96 91.82 M0.26 -1.15 C-14.89 14.3, -75.93 77.56, -91.06 93.32" stroke="#000000" stroke-width="1" fill="none"></path></g><g transform="translate(1426.064298303063 129.70054137407806) rotate(0 -44.96901593233315 46.088791926034645)"><path d="M-79.01 65.4 C-82.49 73.8, -85.64 81.04, -90.16 94.88 M-78.39 66.88 C-82.96 76, -87.67 85.87, -90.63 94.25" stroke="#000000" stroke-width="1" fill="none"></path></g><g transform="translate(1426.064298303063 129.70054137407806) rotate(0 -44.96901593233315 46.088791926034645)"><path d="M-64.23 79.63 C-72.01 84.05, -79.44 87.17, -90.16 94.88 M-63.61 81.11 C-73.44 85.42, -83.28 90.36, -90.63 94.25" stroke="#000000" stroke-width="1" fill="none"></path></g></g><mask></mask><g stroke-linecap="round"><g transform="translate(1445.1158826715237 139.78667427502785) rotate(0 7.925042094734323 37.49274145999925)"><path d="M-0.45 0.73 C2.28 13.02, 13.62 61.57, 16.3 73.96 M1.52 0.07 C4.04 12.45, 12.35 62.19, 15.08 74.91" stroke="#000000" stroke-width="1" fill="none"></path></g><g transform="translate(1445.1158826715237 139.78667427502785) rotate(0 7.925042094734323 37.49274145999925)"><path d="M1.01 48.25 C2.48 54.85, 8.85 64.43, 13.19 76.58 M0.1 48.95 C4.46 58.53, 10.56 67.03, 14.82 75.9" stroke="#000000" stroke-width="1" fill="none"></path></g><g transform="translate(1445.1158826715237 139.78667427502785) rotate(0 7.925042094734323 37.49274145999925)"><path d="M21.17 44.46 C16.7 52.1, 17.12 62.8, 13.19 76.58 M20.26 45.15 C17.47 56.25, 16.42 66.09, 14.82 75.9" stroke="#000000" stroke-width="1" fill="none"></path></g></g><mask></mask><g stroke-linecap="round"><g transform="translate(1562.212367783422 138.639849990907) rotate(0 1.7555659761784455 40.25976874396383)"><path d="M-0.25 0.04 C0.46 13.49, 3.09 67.92, 3.76 81.5 M1.82 -0.98 C2.4 12.06, 2.53 66.37, 2.72 79.79" stroke="#000000" stroke-width="1" fill="none"></path></g><g transform="translate(1562.212367783422 138.639849990907) rotate(0 1.7555659761784455 40.25976874396383)"><path d="M-7.7 51.39 C-3.57 58.72, -0.86 67.47, 1.73 77.91 M-8.61 51.58 C-5.44 58.09, -3.48 65.12, 3.54 79.95" stroke="#000000" stroke-width="1" fill="none"></path></g><g transform="translate(1562.212367783422 138.639849990907) rotate(0 1.7555659761784455 40.25976874396383)"><path d="M12.82 51.23 C11.66 58.55, 9.08 67.34, 1.73 77.91 M11.91 51.41 C10.1 58.14, 7.09 65.21, 3.54 79.95" stroke="#000000" stroke-width="1" fill="none"></path></g></g><mask></mask><g stroke-linecap="round"><g transform="translate(1338.6511464948312 319.09570362524653) rotate(0 19.341884310420426 34.803701189696966)"><path d="M0.16 -0.88 C6.88 10.74, 33.56 57.51, 39.9 69.13 M-1.22 1.27 C5.45 13.12, 32.34 59.05, 39.31 70.49" stroke="#000000" stroke-width="1" fill="none"></path></g><g transform="translate(1338.6511464948312 319.09570362524653) rotate(0 19.341884310420426 34.803701189696966)"><path d="M14.61 52.64 C21.47 54.77, 27.12 61.29, 39.44 70.71 M16.24 50.63 C20.49 54.7, 25.9 59, 39.33 70.94" stroke="#000000" stroke-width="1" fill="none"></path></g><g transform="translate(1338.6511464948312 319.09570362524653) rotate(0 19.341884310420426 34.803701189696966)"><path d="M32.24 42.15 C34.44 47.04, 35.48 56.3, 39.44 70.71 M33.87 40.13 C34.24 46.57, 35.81 53.16, 39.33 70.94" stroke="#000000" stroke-width="1" fill="none"></path></g></g><mask></mask><g stroke-linecap="round"><g transform="translate(1447.3572455384015 310.13025215773564) rotate(0 -26.72378704221856 40.37650385713408)"><path d="M0.03 -0.59 C-8.75 12.54, -43.71 66.54, -52.58 79.72 M-1.42 1.71 C-10.35 14.98, -44.68 68.42, -53.48 81.34" stroke="#000000" stroke-width="1" fill="none"></path></g><g transform="translate(1447.3572455384015 310.13025215773564) rotate(0 -26.72378704221856 40.37650385713408)"><path d="M-47.52 52.32 C-48.18 60.31, -52.34 70.83, -53.42 81.52 M-47.25 52.95 C-47.47 57.33, -50.21 64.2, -53.41 81.57" stroke="#000000" stroke-width="1" fill="none"></path></g><g transform="translate(1447.3572455384015 310.13025215773564) rotate(0 -26.72378704221856 40.37650385713408)"><path d="M-30.38 63.6 C-36.4 68.14, -45.83 75.18, -53.42 81.52 M-30.11 64.23 C-33.83 66.4, -40.09 70.95, -53.41 81.57" stroke="#000000" stroke-width="1" fill="none"></path></g></g><mask></mask><g stroke-linecap="round"><g transform="translate(1565.0287960494825 310.13025215773564) rotate(0 -24.49391434036562 39.84309721326662)"><path d="M-0.71 -0.86 C-9.22 12.23, -41.94 65.6, -50.1 79.2 M1.11 1.3 C-7.09 14.51, -39.18 67.59, -47.8 80.55" stroke="#000000" stroke-width="1" fill="none"></path></g><g transform="translate(1565.0287960494825 310.13025215773564) rotate(0 -24.49391434036562 39.84309721326662)"><path d="M-42.89 49.91 C-44.29 61.66, -44.11 71.48, -46.96 82.5 M-42.23 51.54 C-44.25 62.05, -45.94 74.86, -48.67 81.36" stroke="#000000" stroke-width="1" fill="none"></path></g><g transform="translate(1565.0287960494825 310.13025215773564) rotate(0 -24.49391434036562 39.84309721326662)"><path d="M-25.53 60.85 C-33.54 68.38, -39.89 74.07, -46.96 82.5 M-24.87 62.48 C-33.6 68.8, -42.1 77.32, -48.67 81.36" stroke="#000000" stroke-width="1" fill="none"></path></g></g><mask></mask><g stroke-linecap="round"><g transform="translate(1492.1845028759562 487.19791864107685) rotate(0 -19.617938941309973 25.330142297902)"><path d="M-0.54 1.19 C-7.26 9.11, -33.25 40.66, -39.52 48.69 M1.38 0.76 C-5.6 9.34, -34 41.58, -40.62 49.9" stroke="#000000" stroke-width="1" fill="none"></path></g><g transform="translate(1492.1845028759562 487.19791864107685) rotate(0 -19.617938941309973 25.330142297902)"><path d="M-28.31 21.24 C-34.87 33.86, -37.62 42.24, -41.04 50.96 M-30.39 21.2 C-31.98 27.16, -34.27 33.27, -41.4 49.18" stroke="#000000" stroke-width="1" fill="none"></path></g><g transform="translate(1492.1845028759562 487.19791864107685) rotate(0 -19.617938941309973 25.330142297902)"><path d="M-12.63 34.47 C-25.1 42.14, -33.64 45.63, -41.04 50.96 M-14.7 34.43 C-19.47 37.73, -25.05 41.06, -41.4 49.18" stroke="#000000" stroke-width="1" fill="none"></path></g></g><mask></mask><g stroke-linecap="round"><g transform="translate(1382.3577223989469 490.55996294139334) rotate(0 20.091304356708577 17.8763420567916)"><path d="M0.35 -0.06 C7.1 5.99, 34.08 29.67, 41.11 35.53 M-0.92 -1.14 C5.58 5.15, 32.77 30.7, 39.97 36.9" stroke="#000000" stroke-width="1" fill="none"></path></g><g transform="translate(1382.3577223989469 490.55996294139334) rotate(0 20.091304356708577 17.8763420567916)"><path d="M14.48 25.96 C22.91 31.86, 31.18 34.62, 38.12 35.08 M14.91 26.38 C22.47 30.27, 28.08 32.82, 40.01 36.63" stroke="#000000" stroke-width="1" fill="none"></path></g><g transform="translate(1382.3577223989469 490.55996294139334) rotate(0 20.091304356708577 17.8763420567916)"><path d="M27.06 12.06 C30.97 22.9, 34.81 30.56, 38.12 35.08 M27.5 12.48 C31.38 20.19, 33.41 26.69, 40.01 36.63" stroke="#000000" stroke-width="1" fill="none"></path></g></g><mask></mask><g stroke-linecap="round"><g transform="translate(992.3605835622211 571.2490261489919) rotate(0 113.7332037603613 -75.20801842388806)"><path d="M1.07 0.9 C39.09 -23.89, 189.57 -124.45, 227.29 -149.58 M0.18 0.33 C38.18 -24.73, 188.99 -125.93, 226.82 -151.32" stroke="#000000" stroke-width="1" fill="none"></path></g><g transform="translate(992.3605835622211 571.2490261489919) rotate(0 113.7332037603613 -75.20801842388806)"><path d="M210.63 -125.56 C214.66 -131.25, 218.28 -136.67, 227.71 -150.31 M209.26 -128.02 C214.72 -133.81, 219.35 -141.42, 226.21 -151.77" stroke="#000000" stroke-width="1" fill="none"></path></g><g transform="translate(992.3605835622211 571.2490261489919) rotate(0 113.7332037603613 -75.20801842388806)"><path d="M199.2 -142.61 C205.79 -144.39, 212.1 -145.82, 227.71 -150.31 M197.82 -145.06 C206.49 -145.96, 214.35 -148.75, 226.21 -151.77" stroke="#000000" stroke-width="1" fill="none"></path></g></g><mask></mask><g stroke-linecap="round"><g transform="translate(3677.7210331024758 1792.4836546517922) rotate(0 202.43860031851204 1.5012767090295256)"><path d="M-0.91 0.15 C66.66 0.69, 338.14 2.09, 405.79 2.33 M0.81 -0.82 C68.27 0.01, 338.08 3.28, 405.32 3.83" stroke="#000000" stroke-width="1" fill="none"></path></g><g transform="translate(3677.7210331024758 1792.4836546517922) rotate(0 202.43860031851204 1.5012767090295256)"><path d="M377.27 15.32 C386.37 10.9, 394.47 6.08, 406.29 5.69 M376.19 13.08 C387.67 10.21, 399.18 5.6, 404.78 4.15" stroke="#000000" stroke-width="1" fill="none"></path></g><g transform="translate(3677.7210331024758 1792.4836546517922) rotate(0 202.43860031851204 1.5012767090295256)"><path d="M377.48 -5.2 C386.35 -2.82, 394.38 -0.83, 406.29 5.69 M376.4 -7.44 C387.6 -2.12, 399.03 1.46, 404.78 4.15" stroke="#000000" stroke-width="1" fill="none"></path></g></g><mask></mask><g transform="translate(3814.0506111762083 1740.9590930538684) rotate(0 34.5 23)"><text x="0" y="32" font-family="Virgil, Segoe UI Emoji" font-size="36px" fill="#000000" text-anchor="start" style="white-space: pre;" direction="ltr">PoC</text></g><g stroke-linecap="round" transform="translate(4086.4436916762893 928.1544317134425) rotate(0 430.5 871)"><path d="M32 0 M32 0 C282.75 -0.79, 534.7 -0.85, 829 0 M32 0 C256.52 3.49, 482.07 2.84, 829 0 M829 0 C849.14 1.57, 860.05 11.45, 861 32 M829 0 C850.56 -1.75, 861.15 10.64, 861 32 M861 32 C863.24 495.7, 864.55 960.28, 861 1710 M861 32 C860.57 526.04, 860.69 1019.77, 861 1710 M861 1710 C859.24 1730.8, 850.97 1743.94, 829 1742 M861 1710 C861.31 1729.47, 850.12 1740.87, 829 1742 M829 1742 C577.68 1742.87, 326.61 1741.66, 32 1742 M829 1742 C542.21 1743.71, 254.71 1743.25, 32 1742 M32 1742 C8.84 1743.09, -1.48 1731.22, 0 1710 M32 1742 C10.91 1743.07, -1.69 1733.09, 0 1710 M0 1710 C-6.36 1307.56, -5.98 903.37, 0 32 M0 1710 C6.34 1120.66, 6.34 531.75, 0 32 M0 32 C-1.77 11.87, 9.41 -0.85, 32 0 M0 32 C-1.07 10.46, 9.54 1.94, 32 0" stroke="#000000" stroke-width="1" fill="none"></path></g><g transform="translate(4218.44369167629 1500.1544317134426) rotate(0 298.5 299)"><text x="298.5" y="32" font-family="Virgil, Segoe UI Emoji" font-size="36px" fill="#000000" text-anchor="middle" style="white-space: pre;" direction="ltr">Client:</text><text x="298.5" y="78" font-family="Virgil, Segoe UI Emoji" font-size="36px" fill="#000000" text-anchor="middle" style="white-space: pre;" direction="ltr">Each step is a container</text><text x="298.5" y="124" font-family="Virgil, Segoe UI Emoji" font-size="36px" fill="#000000" text-anchor="middle" style="white-space: pre;" direction="ltr">Announce Capabilities</text><text x="298.5" y="170" font-family="Virgil, Segoe UI Emoji" font-size="36px" fill="#000000" text-anchor="middle" style="white-space: pre;" direction="ltr">Capable of running without server</text><text x="298.5" y="216" font-family="Virgil, Segoe UI Emoji" font-size="36px" fill="#000000" text-anchor="middle" style="white-space: pre;" direction="ltr">UI ***</text><text x="298.5" y="262" font-family="Virgil, Segoe UI Emoji" font-size="36px" fill="#000000" text-anchor="middle" style="white-space: pre;" direction="ltr"></text><text x="298.5" y="308" font-family="Virgil, Segoe UI Emoji" font-size="36px" fill="#000000" text-anchor="middle" style="white-space: pre;" direction="ltr">Server:</text><text x="298.5" y="354" font-family="Virgil, Segoe UI Emoji" font-size="36px" fill="#000000" text-anchor="middle" style="white-space: pre;" direction="ltr">Env Vars (no secrets)</text><text x="298.5" y="400" font-family="Virgil, Segoe UI Emoji" font-size="36px" fill="#000000" text-anchor="middle" style="white-space: pre;" direction="ltr">Same Socket/Network</text><text x="298.5" y="446" font-family="Virgil, Segoe UI Emoji" font-size="36px" fill="#000000" text-anchor="middle" style="white-space: pre;" direction="ltr">Multiple Agents?</text><text x="298.5" y="492" font-family="Virgil, Segoe UI Emoji" font-size="36px" fill="#000000" text-anchor="middle" style="white-space: pre;" direction="ltr">Github Webhook integration?</text><text x="298.5" y="538" font-family="Virgil, Segoe UI Emoji" font-size="36px" fill="#000000" text-anchor="middle" style="white-space: pre;" direction="ltr"></text><text x="298.5" y="584" font-family="Virgil, Segoe UI Emoji" font-size="36px" fill="#000000" text-anchor="middle" style="white-space: pre;" direction="ltr"></text></g><g stroke-linecap="round" transform="translate(1521.3743454609096 52.390791795756485) rotate(0 39.39047218554799 40.73332919187358)"><path d="M19.7 0 M19.7 0 C31.96 -0.69, 42.76 -0.78, 59.09 0 M19.7 0 C30.81 -0.7, 40.74 0.63, 59.09 0 M59.09 0 C71.69 0.06, 79.2 7.7, 78.78 19.7 M59.09 0 C73.44 -1.28, 80.33 5.68, 78.78 19.7 M78.78 19.7 C80.04 34.6, 76.81 46.74, 78.78 61.77 M78.78 19.7 C78.93 34.59, 78.77 48.22, 78.78 61.77 M78.78 61.77 C79.05 73.04, 71.2 82.78, 59.09 81.47 M78.78 61.77 C79.85 72.82, 69.98 83.68, 59.09 81.47 M59.09 81.47 C45.65 82.57, 33.94 79.45, 19.7 81.47 M59.09 81.47 C46.39 81.7, 35.55 81.29, 19.7 81.47 M19.7 81.47 C8.22 83.08, -0.6 74.47, 0 61.77 M19.7 81.47 C5.48 80.9, -1.43 76.86, 0 61.77 M0 61.77 C0.68 47.25, 1.25 32.59, 0 19.7 M0 61.77 C-0.95 45.85, 0.74 31.18, 0 19.7 M0 19.7 C-1.02 6.93, 7.44 -1.28, 19.7 0 M0 19.7 C2.22 7.94, 7.23 -1.04, 19.7 0" stroke="#000000" stroke-width="1" fill="none"></path></g><g stroke-linecap="round" transform="translate(1502.9279031410474 941.9238988189219) rotate(0 391.76069007835105 212.50487616796158)"><path d="M32 0 M32 0 C195.62 -1.63, 359.67 -1.49, 751.52 0 M32 0 C232.65 0.86, 433.15 0.75, 751.52 0 M751.52 0 C772.01 -1.93, 782.14 12.39, 783.52 32 M751.52 0 C771.3 0.03, 781.67 8.57, 783.52 32 M783.52 32 C782.49 130.9, 783.61 230.59, 783.52 393.01 M783.52 32 C785.38 126.06, 785.72 220.63, 783.52 393.01 M783.52 393.01 C784.07 413.36, 771.25 426.82, 751.52 425.01 M783.52 393.01 C784.94 413.22, 770.82 424.47, 751.52 425.01 M751.52 425.01 C510.97 426.21, 269.91 426.02, 32 425.01 M751.52 425.01 C496.93 425.06, 242.23 425.36, 32 425.01 M32 425.01 C10.64 425.04, 1.69 415.8, 0 393.01 M32 425.01 C8.76 425.16, 1.12 412.88, 0 393.01 M0 393.01 C2.11 312.96, 1.33 233.31, 0 32 M0 393.01 C-0.35 320.3, 0.26 246.65, 0 32 M0 32 C-0.07 9.02, 11.36 0.43, 32 0 M0 32 C-1.79 11.82, 12.96 -1.51, 32 0" stroke="#000000" stroke-width="1" fill="none"></path></g><g stroke-linecap="round" transform="translate(1560.2231354109354 941.0286608147045) rotate(0 391.76069007835105 212.50487616796158)"><path d="M32 0 M32 0 C245.57 -2.74, 459.51 -2.44, 751.52 0 M32 0 C263.57 -1.71, 494.66 -1.1, 751.52 0 M751.52 0 C772.5 -0.85, 785.43 10.54, 783.52 32 M751.52 0 C772.93 -0.15, 782.02 12.09, 783.52 32 M783.52 32 C781.56 109.16, 783.16 183.71, 783.52 393.01 M783.52 32 C781.14 157.09, 782.18 282.18, 783.52 393.01 M783.52 393.01 C783.24 414.27, 772.28 423.57, 751.52 425.01 M783.52 393.01 C783.82 416.1, 771.24 426, 751.52 425.01 M751.52 425.01 C599.21 426.18, 447.96 425.93, 32 425.01 M751.52 425.01 C532.88 423.69, 314.06 423.58, 32 425.01 M32 425.01 C11.94 423.12, 1.18 414.57, 0 393.01 M32 425.01 C10.93 424.52, -1.83 414.59, 0 393.01 M0 393.01 C-0.93 305.98, -0.32 221.48, 0 32 M0 393.01 C1.67 319.22, 2.16 245.05, 0 32 M0 32 C-0.43 9.96, 10.53 1.27, 32 0 M0 32 C0.78 11.27, 12.42 -0.77, 32 0" stroke="#000000" stroke-width="1" fill="none"></path></g><g transform="translate(2072.742525578738 1609.8969073379753) rotate(0 93.5 23)"><text x="0" y="32" font-family="Virgil, Segoe UI Emoji" font-size="36px" fill="#000000" text-anchor="start" style="white-space: pre;" direction="ltr">my machine</text></g></svg>